<?xml version="1.0" encoding="UTF-8"?>
<svg xmlns="http://www.w3.org/2000/svg" xmlns:xlink="http://www.w3.org/1999/xlink" viewBox="0 0 500 500" width="500px" height="500px">
<g id="surface54114233">
<path style=" stroke:none;fill-rule:nonzero;fill:rgb(100%,100%,100%);fill-opacity:1;" d="M 320 110 L 370 110 C 375.519531 110 380 105.519531 380 100 L 380 32.628906 C 380 27.390625 375.96875 23.03125 370.75 22.660156 C 354.839844 21.53125 323.761719 20 301.410156 20 C 240 20 200 56.800781 200 123.679688 L 200 190 L 130 190 C 124.480469 190 120 194.480469 120 200 L 120 270 C 120 275.519531 124.480469 280 130 280 L 200 280 L 200 470 C 200 475.519531 204.480469 480 210 480 L 280 480 C 285.519531 480 290 475.519531 290 470 L 290 280 L 362.21875 280 C 367.320312 280 371.601562 276.171875 372.160156 271.101562 L 379.941406 201.101562 C 380.601562 195.179688 375.960938 190 370 190 L 290 190 L 290 140 C 290 123.429688 303.429688 110 320 110 Z M 320 110 "/>
</g>
</svg>
