<?xml version="1.0" encoding="UTF-8"?>
<svg width="16px" height="16px" viewBox="0 0 16 16" version="1.1" xmlns="http://www.w3.org/2000/svg" xmlns:xlink="http://www.w3.org/1999/xlink">
    <!-- Generator: sketchtool 46 (44423) - http://www.bohemiancoding.com/sketch -->
    <title>EE8B64DE-BB5B-48C7-A61A-707BF9B6AD16</title>
    <desc>Created with sketchtool.</desc>
    <defs></defs>
    <g id="Page-1" stroke="none" stroke-width="1" fill="none" fill-rule="evenodd">
        <g id="main" transform="translate(-1293.000000, -24.000000)" fill="#FFFFFF">
            <path d="M1301,25 C1300.57291,25 1300.15104,25.0807284 1299.73438,25.2421875 C1299.31771,25.4036466 1298.94271,25.6093737 1298.60938,25.859375 C1298.27604,26.1093763 1298.00781,26.3802069 1297.80469,26.671875 C1297.60156,26.9635431 1297.5,27.239582 1297.5,27.5 L1297.5,30 C1297.5,30.4895858 1297.62239,31.1145795 1297.86719,31.875 C1298.11198,32.6354205 1298.49479,33.2239563 1299.01562,33.640625 C1299.15104,33.7447922 1299.2526,33.8776034 1299.32031,34.0390625 C1299.38802,34.2005216 1299.41146,34.3697908 1299.39062,34.546875 C1299.35937,34.7135425 1299.29427,34.8671868 1299.19531,35.0078125 C1299.09635,35.1484382 1298.96875,35.255208 1298.8125,35.328125 L1294.42188,37.40625 C1294.35937,37.4270834 1294.27344,37.4765621 1294.16406,37.5546875 C1294.05469,37.6328129 1294,37.7760406 1294,37.984375 L1294,39 L1307.98438,38.984375 L1307.98438,38.015625 C1307.98438,37.7447903 1307.91927,37.5755212 1307.78906,37.5078125 C1307.65885,37.4401038 1307.58854,37.40625 1307.57812,37.40625 L1303.21875,35.34375 C1303.0625,35.270833 1302.93229,35.1640632 1302.82812,35.0234375 C1302.72396,34.8828118 1302.66146,34.7239592 1302.64062,34.546875 C1302.61979,34.3697908 1302.64323,34.2005216 1302.71094,34.0390625 C1302.77865,33.8776034 1302.88021,33.7447922 1303.01562,33.640625 C1303.55729,33.2239563 1303.9401,32.6328163 1304.16406,31.8671875 C1304.38802,31.1015587 1304.5,30.4791691 1304.5,30 L1304.5,27.5 C1304.5,27.2291653 1304.39583,26.9479181 1304.1875,26.65625 C1303.97917,26.3645819 1303.71094,26.0963554 1303.38281,25.8515625 C1303.05469,25.6067696 1302.67969,25.4036466 1302.25781,25.2421875 C1301.83594,25.0807284 1301.41667,25 1301,25 Z M1301,24 C1301.55209,24 1302.09635,24.1041656 1302.63281,24.3125 C1303.16927,24.5208344 1303.64844,24.791665 1304.07031,25.125 C1304.49219,25.458335 1304.83594,25.8333313 1305.10156,26.25 C1305.36719,26.6666687 1305.5,27.0833313 1305.5,27.5 L1305.5,30 C1305.5,30.3020848 1305.46875,30.6510397 1305.40625,31.046875 C1305.34375,31.4427103 1305.23958,31.8463521 1305.09375,32.2578125 C1304.94792,32.6692729 1304.75521,33.0651023 1304.51562,33.4453125 C1304.27604,33.8255227 1303.98438,34.1510403 1303.64062,34.421875 L1308,36.5 L1308.49219,36.7734375 C1308.82031,36.9557301 1308.98438,37.1927069 1308.98438,37.484375 L1308.98438,39 C1308.98438,39.2708347 1308.88802,39.5026032 1308.69531,39.6953125 C1308.5026,39.8880218 1308.27083,39.984375 1308,39.984375 L1294,39.984375 C1293.71875,39.984375 1293.48177,39.8880218 1293.28906,39.6953125 C1293.09635,39.5026032 1293,39.2708347 1293,39 L1293,37.484375 C1293,37.2135403 1293.16666,36.9817718 1293.5,36.7890625 L1294,36.5 L1298.39062,34.421875 C1298.03646,34.1406236 1297.73958,33.8020853 1297.5,33.40625 C1297.26042,33.0104147 1297.0651,32.6067729 1296.91406,32.1953125 C1296.76302,31.7838521 1296.65625,31.3828145 1296.59375,30.9921875 C1296.53125,30.6015605 1296.5,30.2708347 1296.5,30 L1296.5,27.5 C1296.5,27.0833313 1296.63021,26.6666687 1296.89062,26.25 C1297.15104,25.8333313 1297.49219,25.458335 1297.91406,25.125 C1298.33594,24.791665 1298.81771,24.5208344 1299.35938,24.3125 C1299.90104,24.1041656 1300.44791,24 1301,24 Z" id="User---simple-line-icons"></path>
        </g>
    </g>
</svg>