<?xml version="1.0" encoding="utf-8"?>
<!-- Generator: Adobe Illustrator 22.1.0, SVG Export Plug-In . SVG Version: 6.00 Build 0)  -->
<svg version="1.1" id="Слой_1" xmlns="http://www.w3.org/2000/svg" xmlns:xlink="http://www.w3.org/1999/xlink" x="0px" y="0px"
	 width="180.3px" height="87.7px" viewBox="0 0 180.3 87.7" style="enable-background:new 0 0 180.3 87.7;" xml:space="preserve">
<style type="text/css">
	.st0{fill:#E8E9EB;}
	.st1{fill:#232B37;}
	.st2{fill:#181818;}
	.st3{fill:#FFFFFF;}
	.st4{opacity:0.2;fill:#232B37;enable-background:new    ;}
</style>
<path class="st0" d="M5,0v6.7l3.3-3.3L5,0z"/>
<path class="st0" d="M0,0v6.7l3.3-3.3L0,0z"/>
<path class="st0" d="M10,0v6.7l3.3-3.3L10,0z"/>
<path class="st1" d="M0,12.3h6.7l-3.3,3.3L0,12.3z"/>
<path class="st2" d="M34.3,3.6c0.2,0.2,0.4,0.4,0.5,0.7C34.9,4.5,35,4.8,35,5c0,0.3,0,0.5-0.2,0.8c-0.1,0.3-0.3,0.5-0.5,0.7
	C34.2,6.6,33.8,7,33,7.8l-2.5,2.5c-1.2,1.2-2.4,2.4-3.7,3.6c0,0-0.1,0.1-0.2,0.1s-0.3,0.1-0.7,0.2s-0.7,0.2-1.1,0.3s-0.7,0.2-1,0.3
	s-0.4,0.1-0.5,0.1c0,0,0,0-0.1,0s-0.1,0-0.2,0c0,0-0.1,0-0.1-0.1c-0.1,0-0.1-0.1-0.1-0.2c0-0.1,0-0.1,0-0.2c0,0,0.1-0.2,0.1-0.4
	l0.3-1l0.3-1.1c0.1-0.4,0.2-0.6,0.2-0.8V11c0,0,0-0.1,0.1-0.1l3.6-3.6c0.9-0.9,1.8-1.8,2.5-2.5c0.4-0.4,0.8-0.8,1.2-1.2
	c0.1-0.1,0.2-0.2,0.5-0.4C32.3,3.1,32.6,3,33,3c0.2,0,0.5,0,0.7,0.2C33.9,3.3,34.1,3.4,34.3,3.6z M31.4,4.8C31,5.2,30.6,5.7,30,6.2
	c-0.6,0.6-1.2,1.2-1.8,1.8c-0.6,0.6-1.2,1.2-1.7,1.7L25.2,11c0.2,0.1,0.3,0.2,0.5,0.3s0.4,0.3,0.6,0.5s0.3,0.3,0.4,0.5
	s0.2,0.3,0.3,0.5c0.3-0.3,0.8-0.8,1.3-1.3s1.1-1.1,1.7-1.7L31.7,8c0.6-0.6,1-1,1.4-1.4c0-0.1-0.1-0.3-0.1-0.4
	c-0.1-0.2-0.2-0.5-0.5-0.7c-0.2-0.2-0.4-0.4-0.7-0.5C31.7,4.9,31.5,4.9,31.4,4.8L31.4,4.8z M24.6,11.7c-0.1,0.3-0.2,0.7-0.4,1.1
	s-0.3,0.9-0.4,1.2c0.4-0.1,0.8-0.3,1.3-0.4c0.5-0.2,0.9-0.3,1.1-0.4c-0.1-0.1-0.1-0.3-0.2-0.4c-0.1-0.2-0.2-0.4-0.4-0.5
	c-0.2-0.2-0.4-0.3-0.6-0.5C25,11.8,24.8,11.7,24.6,11.7L24.6,11.7z M33.8,5.9c0.2-0.2,0.3-0.3,0.4-0.5c0.1-0.1,0.1-0.3,0.1-0.4
	s0-0.3-0.1-0.4c-0.1-0.2-0.2-0.3-0.4-0.4c-0.1-0.1-0.2-0.2-0.4-0.3c-0.1-0.1-0.3-0.1-0.4-0.1c-0.2,0-0.5,0.1-0.6,0.2
	c-0.2,0.1-0.3,0.2-0.3,0.2H32c0.4,0.2,0.7,0.4,1,0.7c0.2,0.2,0.3,0.4,0.4,0.5C33.6,5.7,33.6,5.9,33.8,5.9C33.7,6,33.7,6,33.8,5.9
	C33.8,6,33.8,5.9,33.8,5.9L33.8,5.9z"/>
<g id="Symbols">
	<g id="header1" transform="translate(-1061.000000, -76.000000)">
		<path id="Basket---simple-line-icons" class="st3" d="M1076.9,107.6c0,0.1,0.1,0.1,0.1,0.2s0,0.1,0,0.2l-2.1,6.2
			c0,0.1-0.1,0.2-0.2,0.2s-0.2,0.1-0.3,0.1h-5.9c-0.1,0-0.2,0-0.3-0.1s-0.1-0.1-0.2-0.2l-2.4-8.9c-0.1-0.2-0.1-0.3-0.2-0.4
			c-0.1,0-0.1-0.1-0.2-0.1h-1.9c-0.1,0-0.2,0-0.3-0.1s-0.1-0.2-0.1-0.3c0-0.1,0-0.2,0.1-0.3s0.2-0.1,0.3-0.1h1.9
			c0.1,0,0.3,0.1,0.6,0.2c0.3,0.1,0.5,0.4,0.6,0.9l0.7,2.4h9.3c0.1,0,0.1,0,0.2,0.1C1076.8,107.5,1076.8,107.6,1076.9,107.6z
			 M1074.1,113.6l1.8-5.3h-8.5l1.4,5.3H1074.1z M1073.3,115.4c-0.3,0-0.6,0.1-0.8,0.3c-0.2,0.2-0.3,0.5-0.3,0.8s0.1,0.6,0.3,0.8
			c0.2,0.2,0.5,0.3,0.8,0.3s0.6-0.1,0.8-0.3c0.2-0.2,0.3-0.5,0.3-0.8s-0.1-0.6-0.3-0.8C1073.8,115.5,1073.6,115.4,1073.3,115.4z
			 M1069.3,115.4c-0.3,0-0.6,0.1-0.8,0.3c-0.2,0.2-0.3,0.5-0.3,0.8s0.1,0.6,0.3,0.8c0.2,0.2,0.5,0.3,0.8,0.3s0.6-0.1,0.8-0.3
			c0.2-0.2,0.3-0.5,0.3-0.8s-0.1-0.6-0.3-0.8S1069.6,115.4,1069.3,115.4z"/>
	</g>
</g>
<g id="Page-1">
	<g id="main" transform="translate(-809.000000, -24.000000)">
		<g id="chat-copy-2" transform="translate(809.000000, 24.000000)">
			<path id="Shape" class="st1" d="M56.5,3H43.1C42.5,3,42,3.5,42,4.2v8c0,0.6,0.5,1.1,1.1,1.1H44v3c0,0.2,0.1,0.4,0.3,0.4
				c0.1,0,0.1,0,0.2,0c0.1,0,0.2,0,0.3-0.1l3.3-3.3h0.7c0.3,0,0.5-0.2,0.5-0.5s-0.2-0.5-0.5-0.5h-0.9c-0.1,0-0.2,0.1-0.3,0.1
				l-2.7,2.7v-2.4c0-0.2-0.2-0.4-0.5-0.4h-1.3c-0.1,0-0.2-0.1-0.2-0.2v-8c0,0,0.1-0.1,0.2-0.1h13.4c0.1,0,0.2,0.1,0.2,0.2v3.1
				c0,0.3,0.2,0.5,0.5,0.5s0.5-0.2,0.5-0.5V4.2C57.7,3.5,57.2,3,56.5,3z"/>
			<path id="Shape_1_" class="st1" d="M60.9,8.8h-9.4c-0.6,0-1.1,0.5-1.1,1.1v5.5c0,0.6,0.5,1.1,1.1,1.1h5.9l2.4,2.4
				C59.9,19,60,19,60.1,19s0.1,0,0.2,0c0.2-0.1,0.3-0.2,0.3-0.4v-2h0.3c0.6,0,1.1-0.5,1.1-1.1V9.9C62,9.3,61.5,8.8,60.9,8.8z
				 M61.1,15.4c0,0.1-0.1,0.2-0.2,0.2h-0.8c-0.2,0-0.5,0.2-0.5,0.4v1.4l-1.7-1.7l0,0l0,0c-0.1-0.1-0.2-0.1-0.3-0.1h-6.1
				c-0.1,0-0.2-0.1-0.2-0.2V9.9c0-0.1,0.1-0.2,0.2-0.2h9.4c0.1,0,0.2,0.1,0.2,0.2L61.1,15.4L61.1,15.4z"/>
			<path id="Shape_2_" class="st1" d="M56.2,12.2c-0.3,0-0.5,0.2-0.5,0.5s0.2,0.5,0.5,0.5s0.5-0.2,0.5-0.5S56.4,12.2,56.2,12.2z"/>
			<path id="Shape_3_" class="st1" d="M54.1,6.1h-8.6c-0.3,0-0.5,0.2-0.5,0.5s0.2,0.5,0.5,0.5h8.6c0.3,0,0.5-0.2,0.5-0.5
				C54.6,6.4,54.4,6.1,54.1,6.1z"/>
			<path id="Shape_4_" class="st1" d="M48.8,9.3h-3.3c-0.3,0-0.5,0.2-0.5,0.5s0.2,0.5,0.5,0.5h3.3c0.3,0,0.5-0.2,0.5-0.5
				S49.1,9.3,48.8,9.3z"/>
			<path id="Shape_5_" class="st1" d="M54,12.2c-0.3,0-0.5,0.2-0.5,0.5s0.2,0.5,0.5,0.5s0.5-0.2,0.5-0.5S54.2,12.2,54,12.2z"/>
			<path id="Shape_6_" class="st1" d="M58.4,12.2c-0.3,0-0.5,0.2-0.5,0.5s0.2,0.5,0.5,0.5s0.5-0.2,0.5-0.5
				C58.8,12.4,58.6,12.2,58.4,12.2z"/>
		</g>
	</g>
</g>
<g id="Page-1_1_">
	<g id="catalog_pizza_scroll" transform="translate(-198.000000, -584.000000)">
		<path id="User---simple-line-icons" class="st1" d="M277,587.8c-0.3,0-0.6,0.1-1,0.2s-0.6,0.3-0.8,0.5c-0.3,0.2-0.5,0.4-0.6,0.6
			c-0.2,0.2-0.2,0.4-0.2,0.6v1.9c0,0.4,0.1,0.8,0.3,1.4c0.2,0.6,0.5,1,0.9,1.3c0.1,0.1,0.2,0.2,0.2,0.3s0.1,0.2,0.1,0.4
			c0,0.1-0.1,0.2-0.1,0.3c-0.1,0.1-0.2,0.2-0.3,0.2l-3.3,1.6c0,0-0.1,0.1-0.2,0.1s-0.1,0.2-0.1,0.3v0.8h10.5v-0.7
			c0-0.2,0-0.3-0.1-0.4c-0.1-0.1-0.2-0.1-0.2-0.1l-3.3-1.5c-0.1-0.1-0.2-0.1-0.3-0.2c-0.1-0.1-0.1-0.2-0.1-0.4c0-0.1,0-0.3,0.1-0.4
			c0.1-0.1,0.1-0.2,0.2-0.3c0.4-0.3,0.7-0.8,0.9-1.3c0.2-0.6,0.3-1,0.3-1.4v-1.9c0-0.2-0.1-0.4-0.2-0.6c-0.2-0.2-0.4-0.4-0.6-0.6
			s-0.5-0.3-0.8-0.5S277.3,587.8,277,587.8z M277,587c0.4,0,0.8,0.1,1.2,0.2c0.4,0.2,0.8,0.4,1.1,0.6c0.3,0.3,0.6,0.5,0.8,0.8
			c0.2,0.3,0.3,0.6,0.3,0.9v1.9c0,0.2,0,0.5-0.1,0.8c0,0.3-0.1,0.6-0.2,0.9c-0.1,0.3-0.3,0.6-0.4,0.9c-0.2,0.3-0.4,0.5-0.7,0.7
			l3.3,1.6l0.4,0.2c0.2,0.1,0.4,0.3,0.4,0.5v1.1c0,0.2-0.1,0.4-0.2,0.5s-0.3,0.2-0.5,0.2h-10.5c-0.2,0-0.4-0.1-0.5-0.2
			c-0.1-0.1-0.2-0.3-0.2-0.5V597c0-0.2,0.1-0.4,0.4-0.5l0.4-0.2l3.3-1.6c-0.3-0.2-0.5-0.5-0.7-0.8s-0.3-0.6-0.4-0.9
			s-0.2-0.6-0.2-0.9c0-0.3-0.1-0.5-0.1-0.7v-1.9c0-0.3,0.1-0.6,0.3-0.9c0.2-0.3,0.5-0.6,0.8-0.8c0.3-0.3,0.7-0.5,1.1-0.6
			C276.2,587.1,276.6,587,277,587z"/>
	</g>
</g>
<g id="Symbols_1_">
	<g id="header1_1_" transform="translate(-1061.000000, -76.000000)">
		<path id="Basket---simple-line-icons_1_" class="st2" d="M1098.8,107.2c0,0.1,0.1,0.1,0.1,0.2s0,0.2,0,0.2l-2.4,7
			c0,0.1-0.1,0.2-0.2,0.2s-0.2,0.1-0.3,0.1h-6.8c-0.1,0-0.2,0-0.3-0.1s-0.1-0.2-0.2-0.3l-2.8-10.2c-0.1-0.3-0.2-0.4-0.2-0.4
			s-0.1-0.1-0.2-0.1h-2.1c-0.1,0-0.3,0-0.3-0.1s-0.1-0.2-0.1-0.3c0-0.1,0-0.3,0.1-0.4s0.2-0.1,0.3-0.1h2.1c0.2,0,0.4,0.1,0.7,0.2
			s0.5,0.5,0.7,1l0.8,2.8h10.6c0.1,0,0.1,0,0.2,0.1S1098.8,107.1,1098.8,107.2z M1095.7,114l2-6h-9.6l1.6,6H1095.7z M1094.7,116
			c-0.3,0-0.6,0.1-0.9,0.4s-0.4,0.5-0.4,0.9s0.1,0.6,0.4,0.9s0.5,0.4,0.9,0.4s0.6-0.1,0.9-0.4s0.4-0.5,0.4-0.9s-0.1-0.6-0.4-0.9
			S1095,116,1094.7,116z M1090.2,116c-0.3,0-0.6,0.1-0.9,0.4s-0.4,0.5-0.4,0.9s0.1,0.6,0.4,0.9s0.5,0.4,0.9,0.4s0.6-0.1,0.9-0.4
			s0.4-0.5,0.4-0.9s-0.1-0.6-0.4-0.9S1090.5,116,1090.2,116z"/>
	</g>
</g>
<path class="st4" d="M59.6,33.8c0.7,0,1.3,0.2,1.8,0.7c0.5,0.5,0.7,1.1,0.7,1.8v7.5c0,0.7-0.2,1.3-0.7,1.8c-0.5,0.5-1.1,0.7-1.8,0.7
	H48.4c-0.7,0-1.3-0.2-1.8-0.7c-0.5-0.5-0.7-1.1-0.7-1.8v-7.5c0-0.7,0.2-1.3,0.7-1.8c0.5-0.5,1.1-0.7,1.8-0.7H49v-2.4
	c0-0.7,0.1-1.4,0.4-2s0.6-1.2,1-1.6c0.4-0.5,1-0.8,1.6-1.1c0.6-0.3,1.3-0.4,2-0.4c0.7,0,1.4,0.1,2,0.4c0.6,0.3,1.1,0.6,1.6,1.1
	c0.4,0.5,0.8,1,1,1.6c0.2,0.6,0.4,1.3,0.4,2v2.4H59.6z M50.3,31.4v2.4h7.5v-2.4c0-1.1-0.3-2-1-2.7c-0.7-0.7-1.6-1.1-2.7-1.1
	c-1.1,0-2,0.4-2.7,1.1C50.6,29.4,50.3,30.3,50.3,31.4z M60.9,43.8v-7.5c0-0.3-0.1-0.6-0.4-0.9C60.3,35.1,60,35,59.6,35H48.4
	c-0.3,0-0.6,0.1-0.9,0.4c-0.2,0.2-0.4,0.5-0.4,0.9v7.5c0,0.3,0.1,0.6,0.4,0.9c0.2,0.2,0.5,0.4,0.9,0.4h11.3c0.3,0,0.6-0.1,0.9-0.4
	C60.8,44.4,60.9,44.1,60.9,43.8z M54,37.5c0.4,0,0.6,0.1,0.9,0.4c0.2,0.2,0.4,0.5,0.4,0.9c0,0.2-0.1,0.4-0.2,0.6
	c-0.1,0.2-0.3,0.3-0.4,0.4v2c0,0.2-0.1,0.3-0.2,0.4c-0.1,0.1-0.3,0.2-0.4,0.2c-0.2,0-0.3-0.1-0.4-0.2c-0.1-0.1-0.2-0.3-0.2-0.4v-2.1
	c-0.2-0.1-0.3-0.3-0.5-0.4c-0.1-0.2-0.2-0.4-0.2-0.6c0-0.4,0.1-0.6,0.4-0.9C53.4,37.6,53.6,37.5,54,37.5z"/>
</svg>
