<?xml version="1.0" encoding="utf-8"?>
<!-- Generator: Adobe Illustrator 23.0.1, SVG Export Plug-In . SVG Version: 6.00 Build 0)  -->
<svg version="1.1" id="Слой_1" xmlns="http://www.w3.org/2000/svg" xmlns:xlink="http://www.w3.org/1999/xlink" x="0px" y="0px"
	 viewBox="0 0 21 21" style="enable-background:new 0 0 21 21;" xml:space="preserve">
<style type="text/css">
	.st0{fill:#FFFFFF;}
</style>

<g>
	<path class="st0" d="M20.2,5L20.2,5c-0.5-2-2.7-4.1-4.7-4.6l0,0c-3.3-0.6-6.6-0.6-9.9,0l0,0C3.5,0.9,1.3,3,0.8,5l0,0
		c-0.6,2.8-0.6,5.6,0,8.3l0,0c0.5,1.9,2.5,3.9,4.5,4.5v2.2c0,0.8,1,1.2,1.5,0.6L9,18.4c0.5,0,1,0,1.5,0c1.7,0,3.3-0.2,4.9-0.5l0,0
		c2-0.4,4.2-2.6,4.7-4.6l0,0C20.8,10.6,20.8,7.8,20.2,5L20.2,5z M18.4,13c-0.3,1.3-2,2.9-3.3,3.2c-1.7,0.3-3.5,0.5-5.3,0.4
		c0,0-0.1,0-0.1,0c-0.2,0.3-1.6,1.7-1.6,1.7l-1.7,1.8C6.2,20.2,6,20.2,6,20v-3.7c0-0.1,0-0.1-0.1-0.1l0,0c-1.3-0.3-3-1.9-3.3-3.2
		C2,10.5,2,8,2.6,5.5c0.3-1.3,2-2.9,3.3-3.2c3-0.6,6.1-0.6,9.2,0c1.3,0.3,3,1.9,3.3,3.2C19,8,19,10.5,18.4,13L18.4,13z M18.4,13"/>
	<path class="st0" d="M13.4,14.7c-0.2-0.1-0.4-0.1-0.6-0.2c-1.9-0.8-3.6-1.8-5-3.3c-0.8-0.9-1.4-1.9-1.9-2.9c-0.2-0.5-0.5-1-0.7-1.5
		c-0.2-0.5,0.1-1,0.4-1.3c0.3-0.3,0.6-0.6,1-0.8C7,4.5,7.3,4.6,7.5,4.9C8,5.4,8.4,6,8.8,6.6C9,7,8.9,7.5,8.5,7.8
		C8.5,7.9,8.4,7.9,8.3,8C8.2,8.1,8.1,8.1,8.1,8.2C8,8.4,8,8.6,8,8.7c0.5,1.3,1.3,2.4,2.7,3c0.2,0.1,0.4,0.2,0.7,0.2
		c0.4,0,0.6-0.5,0.8-0.7c0.3-0.2,0.7-0.2,1,0c0.3,0.2,0.6,0.4,0.9,0.6c0.3,0.2,0.6,0.4,0.9,0.6c0.3,0.2,0.3,0.5,0.2,0.8
		c-0.3,0.6-0.7,1-1.2,1.3C13.8,14.6,13.6,14.6,13.4,14.7C13.2,14.6,13.6,14.6,13.4,14.7L13.4,14.7z M13.4,14.7"/>
	<path class="st0" d="M10.5,4C13,4.1,15,5.7,15.4,8.1c0.1,0.4,0.1,0.8,0.1,1.3c0,0.2-0.1,0.3-0.3,0.3c-0.2,0-0.3-0.2-0.3-0.3
		c0-0.3,0-0.7-0.1-1c-0.3-1.8-1.7-3.3-3.5-3.7c-0.3,0-0.6-0.1-0.8-0.1c-0.2,0-0.4,0-0.4-0.2C10,4.2,10.2,4,10.4,4
		C10.4,4,10.5,4,10.5,4C13,4.1,10.5,4,10.5,4L10.5,4z M10.5,4"/>
	<path class="st0" d="M14.2,8.9c0,0,0,0.1,0,0.2c-0.1,0.2-0.4,0.3-0.5,0c0-0.1,0-0.2,0-0.2c0-0.5-0.1-1-0.4-1.5
		c-0.3-0.5-0.7-0.9-1.2-1.1c-0.3-0.1-0.6-0.2-0.9-0.3c-0.1,0-0.3,0-0.4-0.1c-0.2,0-0.3-0.1-0.3-0.3c0-0.2,0.1-0.3,0.3-0.3
		c0.6,0,1.1,0.2,1.6,0.4c1,0.5,1.6,1.4,1.8,2.5c0,0.1,0,0.1,0,0.2C14.2,8.6,14.2,8.7,14.2,8.9C14.2,8.9,14.2,8.7,14.2,8.9L14.2,8.9z
		 M14.2,8.9"/>
	<path class="st0" d="M12.7,8.8c-0.2,0-0.3-0.1-0.3-0.3c0-0.1,0-0.3-0.1-0.4c-0.1-0.3-0.2-0.5-0.4-0.6c-0.1-0.1-0.2-0.1-0.3-0.2
		c-0.2,0-0.3,0-0.5-0.1c-0.2,0-0.3-0.2-0.2-0.3c0-0.1,0.2-0.2,0.3-0.2c1,0.1,1.6,0.6,1.7,1.7c0,0.1,0,0.2,0,0.2
		C12.9,8.7,12.8,8.8,12.7,8.8C12.5,8.8,12.8,8.8,12.7,8.8L12.7,8.8z M12.7,8.8"/>
</g>
</svg>
