<?xml version="1.0" encoding="UTF-8"?>
<svg width="187px" height="5px" viewBox="0 0 187 5" version="1.1" xmlns="http://www.w3.org/2000/svg" xmlns:xlink="http://www.w3.org/1999/xlink">
    <!-- Generator: sketchtool 46 (44423) - http://www.bohemiancoding.com/sketch -->
    <title>FABEBF73-C3A5-4D23-87A0-2302DC50B92E</title>
    <desc>Created with sketchtool.</desc>
    <defs></defs>
    <g id="Page-1" stroke="none" stroke-width="1" fill="none" fill-rule="evenodd">
        <g id="catalog_pizza_scroll" transform="translate(-463.000000, -220.000000)" fill-rule="nonzero" fill="#E1E1E1">
            <g id="дшту" transform="translate(463.000000, 220.000000)">
                <path d="M3.13707038,3.7608998 C3.13707038,3.7608998 3.13707038,3.7608998 3.13707038,3.7608998 C8.72258592,4.18466315 14.3081015,4.50248567 19.9701309,4.71436735 C23.336743,4.82030819 26.7798691,4.92624903 30.1464812,4.97921945 C35.0433715,5.03218987 39.9402619,4.97921945 44.8371522,4.87327861 C49.0454173,4.82030819 53.2536825,4.76733777 57.5384615,4.71436735 C60.9050736,4.66139693 64.2716858,4.60842651 67.7148118,4.60842651 C71.6170213,4.55545609 75.5192308,4.50248567 79.4214403,4.44951525 C88.3735679,4.29060399 97.3256956,4.07872231 106.277823,3.91981105 C109.873977,3.86684063 113.393617,3.81387022 116.989771,3.81387022 C119.591244,3.81387022 122.192717,3.7608998 124.79419,3.7608998 C125.941899,3.7608998 127.166121,3.7608998 128.31383,3.7608998 C131.144845,3.81387022 134.052373,3.81387022 136.883388,3.86684063 C138.10761,3.86684063 139.331833,3.86684063 140.63257,3.91981105 C144.764321,4.07872231 148.896072,4.18466315 153.027823,4.34357441 C157.542144,4.55545609 162.056465,4.66139693 166.570786,4.76733777 C170.472995,4.87327861 174.451718,4.92624903 178.353928,4.87327861 C181.261457,4.87327861 184.168985,4.82030819 187,4.55545609 C187,4.55545609 187,4.55545609 187,4.55545609 C185.087152,4.34357441 183.174304,4.13169273 181.337971,3.97278147 C181.414484,3.97278147 181.414484,3.97278147 181.490998,3.97278147 C177.282733,3.54901812 173.150982,3.2311956 168.942717,2.9663435 C165.652619,2.75446182 162.439034,2.54258014 159.148936,2.38366888 C160.373159,2.33069846 161.597381,2.33069846 162.821604,2.27772805 C164.581424,2.22475763 166.26473,2.17178721 168.02455,2.11881679 C170.243453,2.06584637 172.385843,1.95990553 174.604746,1.85396469 C178.58347,1.69505343 182.562193,1.53614217 186.540917,1.27129007 C186.540917,1.27129007 186.540917,1.27129007 186.540917,1.27129007 C182.485679,1.00643797 178.430442,0.953467554 174.451718,0.900497134 C169.937398,0.794556295 165.652619,0.794556295 161.36784,0.794556295 C157.312602,0.794556295 153.180851,0.847526715 149.125614,0.953467554 C145.452946,1.00643797 141.856792,1.11237881 138.184124,1.16534923 C135.200082,1.21831965 132.292553,1.27129007 129.308511,1.27129007 C127.854746,1.27129007 126.400982,1.32426049 125.023732,1.32426049 C120.203355,1.32426049 115.382979,1.37723091 110.562602,1.37723091 C109.33838,1.37723091 108.114157,1.37723091 106.889935,1.37723091 C104.747545,1.37723091 102.605155,1.32426049 100.462766,1.32426049 C97.6317512,1.32426049 94.8007365,1.27129007 91.8932079,1.27129007 C90.898527,1.27129007 89.8273322,1.27129007 88.8326514,1.21831965 C83.7827332,1.11237881 78.6563011,1.05940839 73.606383,0.953467554 C69.5511457,0.900497134 65.5724223,0.741585875 61.5171849,0.688615456 C53.9423077,0.529704197 46.4439444,0.317822518 38.8690671,0.158911259 C34.8903437,0.0529704197 30.9116203,0 26.856383,0 C25.8617021,0 24.7905074,0 23.7958265,0 C21.9594926,0 20.1231588,0 18.2868249,0 C16.9095745,0 15.4558101,0.0529704197 14.0785597,0.0529704197 C9.41121113,0.0529704197 4.66734861,0.158911259 0,0.158911259 C0,0.158911259 0,0.158911259 0,0.158911259 C1.22422259,0.317822518 2.44844517,0.423763357 3.67266776,0.529704197 C4.89689034,0.635645036 6.19762684,0.741585875 7.42184943,0.847526715 C9.71726678,1.05940839 12.089198,1.21831965 14.3846154,1.43020133 C14.8436989,1.48317175 15.2262684,1.48317175 15.6853519,1.48317175 C16.9095745,1.53614217 18.1337971,1.64208301 19.4345336,1.69505343 C22.1890344,1.85396469 24.8670213,1.95990553 27.6215221,2.06584637 C29.1518003,2.11881679 30.6820786,2.17178721 32.2123568,2.17178721 C24.6374795,2.38366888 17.1391162,2.75446182 9.56423895,3.28416602 C7.49836334,3.39010686 5.2794599,3.54901812 3.13707038,3.7608998 Z" id="Shape"></path>
            </g>
        </g>
    </g>
</svg>