<?xml version="1.0" encoding="UTF-8"?>
<svg width="143px" height="112px" viewBox="0 0 143 112" version="1.1" xmlns="http://www.w3.org/2000/svg" xmlns:xlink="http://www.w3.org/1999/xlink">
    <!-- Generator: sketchtool 46 (44423) - http://www.bohemiancoding.com/sketch -->
    <title>07E1FE94-246D-4EF5-A3EA-A6923E2584DC</title>
    <desc>Created with sketchtool.</desc>
    <defs></defs>
    <g id="Page-1" stroke="none" stroke-width="1" fill="none" fill-rule="evenodd" opacity="0.481374547">
        <g id="catalog_pizza_scroll" transform="translate(-777.000000, -90.000000)" fill-rule="nonzero" fill="#FFFFFF">
            <path d="M800.783133,76.6299223 C801.843373,77.6427193 801.987952,78.9931153 802.180723,80.3435112 C802.373494,81.7903641 802.373494,83.2854453 802.518072,84.7805266 C802.566265,85.2628109 802.518072,85.7450951 802.614458,86.179151 C803,87.8189175 803.626506,89.5069125 803.722892,91.146679 C803.819277,93.5581004 804.831325,95.7283796 805.26506,98.0433442 C805.554217,99.5866539 806.180723,101.081735 806.903614,102.48036 C807.481928,103.541385 808.39759,104.457725 809.168675,105.325837 C810.614458,106.965603 812.108434,108.60537 813.60241,110.196908 C814.518072,111.209705 815.626506,112.029588 816.493976,113.090614 C817.795181,114.585695 819.289157,115.791406 820.975904,116.804203 C821.024096,116.804203 821.024096,116.852431 821.072289,116.900659 C822.855422,119.02271 825.457831,120.083736 827.674699,121.675274 C828.204819,122.061101 828.638554,122.495157 829.120482,122.880984 C829.506024,123.218583 829.795181,123.749096 830.46988,123.652639 C830.614458,123.652639 830.855422,123.845553 831,123.990238 C832.493976,125.244177 833.987952,126.498116 835.481928,127.752056 C835.722892,127.944969 835.963855,128.089655 836.39759,128.379025 C835.963855,128.379025 835.722892,128.427254 835.53012,128.379025 C833.60241,127.752056 831.674699,127.076858 829.795181,126.208746 C828.253012,125.533548 826.566265,124.954807 824.879518,124.85835 C822.036145,124.713665 819.337349,124.038467 816.542169,123.652639 C815.86747,123.556182 815.240964,123.266812 814.614458,123.02567 C812.349398,122.10933 809.939759,121.578817 807.481928,121.771731 C805.072289,121.964644 802.662651,122.3987 800.590361,123.749096 C798.855422,124.85835 796.975904,125.726462 794.951807,126.064061 C794.084337,126.208746 794.036145,126.305203 794.180723,127.318 C795.192771,127.269771 796.253012,127.221543 797.313253,127.221543 C799.819277,127.318 802.325301,127.414457 804.831325,127.60737 C805.313253,127.655599 805.843373,127.848512 806.277108,128.089655 C807.722892,128.813081 809.313253,129.247137 810.855422,129.729421 C813.409639,130.549304 816.060241,130.69399 818.662651,131.031589 C820.831325,131.320959 823.096386,131.176274 825.313253,131.224502 C827.674699,131.272731 829.987952,131.320959 832.349398,131.320959 C833.506024,131.320959 834.614458,131.176274 835.771084,131.128046 C837.024096,131.079817 838.325301,131.031589 839.578313,131.079817 C839.915663,131.079817 840.349398,131.272731 840.590361,131.513873 C841.409639,132.140842 842.180723,132.81604 842.903614,133.491238 C844.060241,134.552264 845.120482,135.709746 846.277108,136.819 C846.710843,137.253056 847.192771,137.590655 847.626506,137.976482 C847.915663,138.265853 848.204819,138.555223 848.590361,138.941051 C845.216867,138.217624 842.084337,137.590655 838.951807,136.867228 C838.373494,136.722543 837.795181,136.384944 837.26506,135.999117 C836.638554,135.565061 836.060241,135.179233 835.289157,135.27569 C833.554217,135.420376 831.915663,134.889863 830.277108,134.455807 C829.361446,134.214665 828.493976,133.877066 827.626506,133.587695 C827.53012,133.539467 827.337349,133.44301 827.289157,133.491238 C826.421687,133.973523 825.650602,133.394782 824.831325,133.346553 C823.433735,133.201868 822.036145,133.201868 820.638554,133.153639 C819.722892,133.153639 818.759036,133.105411 817.843373,133.153639 C817.313253,133.201868 816.73494,133.298325 816.253012,133.44301 C813.891566,134.06998 811.481928,134.745178 809.120482,135.420376 C808.493976,135.613289 807.963855,135.950888 807.385542,136.19203 C807.096386,136.336716 806.759036,136.384944 806.421687,136.481401 C805.795181,136.626086 805.024096,136.481401 804.879518,137.44597 C804.831325,137.638883 804.445783,137.783569 804.156627,137.928254 C801.554217,139.182193 798.903614,140.436132 796.301205,141.593614 C794.518072,142.413498 792.73494,143.281609 791.481928,144.873147 C790.710843,145.837716 790.036145,146.995198 789.554217,148.15268 C788.253012,151.432214 786.228916,154.133005 783.337349,156.206828 C783.192771,156.303285 783.096386,156.44797 783,156.544427 C783.626506,157.412539 783.771084,157.460767 784.542169,157.07494 C784.927711,156.882026 785.313253,156.689112 785.650602,156.399742 C787.048193,155.194031 788.73494,154.856432 790.518072,154.856432 C791.626506,154.856432 792.783133,154.518833 793.843373,155.145802 C795.240964,154.663518 796.686747,155.145802 798.13253,155.049346 C798.903614,155.001117 799.722892,155.049346 800.73494,155.097574 C802.036145,153.554264 804.156627,152.975523 805.987952,151.914498 C806.518072,151.625127 806.951807,151.2393 807.433735,150.901701 C808.686747,149.937132 810.036145,149.165477 811.578313,148.731422 C812.927711,148.345594 814.228916,147.86331 815.626506,147.525711 C816.638554,147.284569 817.746988,147.332797 818.807229,147.139883 C820.493976,146.850513 822.180723,146.464685 823.433735,145.162518 C823.963855,144.632005 824.493976,144.053264 825.024096,143.474523 C825.361446,143.088696 825.746988,142.992239 826.180723,143.378066 C827.86747,140.966645 830.036145,139.230421 832.39759,137.73534 C832.73494,137.494198 833.313253,137.542426 833.746988,137.494198 C834.710843,137.349513 835.771084,137.687112 836.686747,136.915457 C836.927711,136.722543 837.650602,137.060142 838.13253,137.204827 C839.674699,137.638883 841.26506,138.024711 842.807229,138.458767 C845.409639,139.182193 848.108434,139.375107 850.566265,140.532589 C851.578313,141.014873 852.638554,141.352472 853.650602,141.882985 C853.072289,142.124127 852.493976,141.979442 851.963855,141.834756 C849.987952,141.304244 848.108434,141.834756 846.325301,142.461726 C844.73494,142.992239 843.289157,143.812122 841.939759,144.921376 C839.722892,146.802284 838.710843,150.274731 840.783133,152.927295 C840.73494,151.914498 840.638554,151.142843 840.638554,150.371188 C840.590361,148.442051 841.409639,146.94697 842.855422,145.693031 C844.542169,144.197949 846.614458,143.619208 848.686747,142.94401 C849.650602,142.65464 850.614458,142.799325 851.578313,142.992239 C852.542169,143.185152 853.506024,143.378066 854.46988,143.378066 C856.301205,143.426295 857.987952,143.908579 859.578313,144.776691 C860.783133,145.451889 862.084337,145.982401 863.048193,146.995198 C863.289157,147.284569 863.674699,147.429254 864.012048,147.622168 C865.457831,148.249137 866.759036,149.117249 867.963855,150.130046 C869.746988,151.625127 871.819277,152.734381 873.891566,153.795406 C875.144578,154.422376 876.253012,155.338716 877.409639,156.062143 C878.951807,157.026711 880.542169,157.894823 882.228916,158.859391 C881.795181,159.341676 881.361446,159.534589 880.686747,159.486361 C878.903614,159.341676 877.168675,159.341676 875.385542,159.631046 C871.771084,160.161559 868.349398,161.174356 864.831325,162.138924 C863.771084,162.428295 862.662651,162.621209 861.60241,162.862351 C861.409639,162.910579 861.168675,162.910579 861.024096,162.862351 C859.048193,162.380067 857.072289,161.849554 855.096386,161.319041 C853.457831,160.884985 852.060241,160.065102 850.614458,159.148762 C847.289157,157.026711 843.86747,155.049346 840.012048,153.795406 C837.120482,152.879066 834.180723,152.396782 831.240964,152.78261 C828.783133,153.120208 826.277108,153.361351 823.963855,154.470604 C822.951807,154.952889 821.795181,155.145802 820.686747,155.483401 C820.445783,155.53163 820.060241,155.53163 819.963855,155.724544 C819.385542,156.833797 818.13253,156.833797 817.26506,157.508995 C816.445783,158.135965 815.289157,158.232422 814.277108,158.618249 C813.120482,159.052305 812.012048,159.534589 810.855422,160.065102 C809.024096,160.836757 807.048193,160.981442 805.072289,160.981442 C804.493976,160.981442 803.86747,161.029671 803.337349,161.126127 C803.144578,161.174356 803,161.511955 802.807229,161.704869 C803,161.849554 803.240964,162.138924 803.433735,162.187153 C805.26506,162.380067 807.048193,162.428295 808.879518,162.621209 C809.698795,162.717666 810.566265,162.862351 811.385542,163.151721 C813.168675,163.730463 814.903614,164.405661 816.686747,165.03263 C819.048193,165.852513 821.457831,165.756057 823.86747,165.322001 C824.975904,165.129087 826.13253,164.791488 827.240964,164.74326 C828.831325,164.695031 830.46988,164.74326 832.060241,164.839716 C833.987952,164.984402 835.963855,165.129087 837.891566,165.514914 C839.096386,165.756057 840.253012,165.563143 841.409639,165.707828 C841.650602,165.756057 841.891566,165.804285 842.180723,166.045427 C841.939759,166.093656 841.698795,166.190112 841.457831,166.190112 C838.807229,166.286569 836.542169,167.540508 834.277108,168.746219 C832.927711,169.469645 831.722892,170.530671 830.566265,171.591696 C829.409639,172.652722 828.445783,173.906661 827.385542,175.064143 C826.759036,175.739341 826.13253,176.462767 825.457831,177.089737 C824.108434,178.343676 823.240964,179.886986 822.566265,181.526752 C822.180723,182.443092 821.650602,183.359433 821.216867,184.275773 C820.590361,185.529712 820.012048,186.783651 819.240964,187.989362 C818.277108,189.484443 817.168675,190.883067 816.108434,192.32992 C815.915663,192.571062 815.578313,192.715748 815.240964,192.95689 C815.337349,193.535631 815.53012,193.87323 816.253012,193.583859 C816.445783,193.487402 816.73494,193.583859 817.168675,193.583859 C817.60241,192.908661 818.325301,192.04055 819.289157,191.847636 C820.638554,191.606494 821.698795,190.78661 822.951807,190.352555 C824.590361,189.773813 825.891566,188.761016 827,187.458849 C827.192771,187.265935 827.433735,187.073022 827.674699,186.928336 C828.879518,186.301367 830.084337,185.722626 831.289157,185.095656 C831.337349,185.095656 831.385542,185.047428 831.385542,185.047428 C832.927711,184.999199 834.228916,184.179316 835.626506,183.697032 C837.506024,183.070062 839.096386,181.960808 840.638554,180.755098 C841.891566,179.790529 843.048193,178.584818 844.301205,177.668478 C846.710843,175.884026 848.783133,173.713747 850.710843,171.447011 C850.951807,171.205869 851.144578,170.964727 851.385542,170.723585 C852.686747,169.421417 853.987952,168.167478 855.240964,166.86531 C855.674699,166.431255 856.156627,166.190112 856.783133,166.093656 C857.698795,165.94897 858.566265,165.611371 859.481928,165.418458 C862.518072,164.74326 865.554217,164.11629 868.590361,163.48932 C869.120482,163.392864 869.650602,163.151721 870.180723,163.055265 C872.686747,162.621209 875.192771,162.235381 877.746988,162.042468 C877.457831,162.235381 877.168675,162.524752 876.831325,162.621209 C875.963855,162.862351 875.337349,163.392864 874.807229,164.11629 C873.361446,166.093656 871.819277,167.926336 870.710843,170.144843 C869.987952,171.591696 869.120482,172.942092 868.253012,174.340717 C867.385542,175.691113 867.144578,177.186194 866.759036,178.681275 C866.373494,180.224585 866.084337,181.767894 865.795181,183.262976 C865.216867,185.819082 865.120482,188.375189 865.939759,190.979524 C866.566265,192.95689 866.518072,195.030712 866.614458,197.056306 C866.662651,197.586819 866.421687,198.16556 866.421687,198.696073 C866.421687,198.937215 866.614458,199.274814 866.807229,199.371271 C867,199.419499 867.433735,199.274814 867.53012,199.130128 C867.86747,198.503159 868.060241,197.779732 868.349398,197.152763 C868.542169,196.718707 868.783133,196.33288 869.120482,195.70591 C868.686747,194.1626 869.361446,192.474605 869.795181,190.738382 C869.891566,190.400783 870.036145,190.063184 870.228916,189.822042 C871.433735,188.230504 872.301205,186.542509 872.831325,184.613372 C873.072289,183.697032 873.60241,182.82892 873.939759,181.91258 C874.373494,180.658641 874.759036,179.404702 875.144578,178.150762 C876.060241,175.401742 876.301205,172.459808 876.831325,169.614331 C877.024096,168.505077 877.457831,167.444051 877.939759,166.431255 C878.46988,165.322001 879.192771,164.309204 879.771084,163.19995 C880.445783,161.897782 881.506024,161.415498 882.903614,161.560183 C884.349398,161.704869 885.746988,161.849554 887.192771,161.994239 C887.53012,162.042468 887.86747,162.138924 888.204819,162.090696 C889.072289,161.946011 889.795181,162.331838 890.518072,162.717666 C890.903614,162.910579 891.289157,163.151721 891.674699,163.151721 C893.650602,163.296407 895.385542,164.11629 897.120482,164.936173 C897.506024,165.129087 897.843373,165.370229 898.277108,165.514914 C900.879518,166.431255 903.289157,167.829879 905.795181,169.03559 C906.903614,169.566102 908.108434,169.903701 909.26506,170.289529 C909.843373,170.482442 910.46988,170.675356 911.192771,170.916498 C910.277108,171.688153 909.361446,171.591696 908.542169,171.447011 C907.240964,171.254097 906.036145,171.447011 904.73494,171.639925 C902.614458,171.929295 900.686747,172.556265 898.855422,173.665519 C897.795181,174.292488 896.686747,174.774772 895.578313,175.353514 C895.481928,175.401742 895.289157,175.44997 895.240964,175.546427 C894.855422,176.70391 893.698795,177.186194 892.975904,178.102534 C892.542169,178.729504 892.012048,179.308245 891.578313,179.935214 C890.855422,180.99624 890.228916,182.057265 889.409639,183.070062 C888.012048,184.6616 887.337349,186.687194 886.807229,188.712788 C886.566265,189.629128 886.13253,190.256098 885.457831,190.78661 C884.975904,191.172438 884.686747,191.558265 884.542169,192.137006 C884.301205,192.95689 884.012048,193.776773 883.819277,194.644885 C883.626506,195.464768 883.192771,196.284651 882.951807,197.152763 C882.855422,197.442133 882.759036,197.731504 882.710843,198.020875 C882.46988,200.046469 881.554217,201.734464 880.204819,203.229545 C879.674699,203.808286 879.192771,204.435255 878.614458,205.158682 C878.662651,205.303367 878.759036,205.640966 878.903614,205.978565 C879.048193,205.978565 879.144578,206.026794 879.192771,205.978565 C879.963855,205.496281 880.783133,205.110453 881.409639,204.483484 C882.759036,203.133088 884.445783,202.216748 886.036145,201.155722 C887.481928,200.191154 889.072289,199.467727 890.662651,198.792529 C891.626506,198.358474 892.204819,197.53859 892.686747,196.718707 C894.228916,194.1626 896.493976,192.571062 899.144578,191.317123 C900.253012,190.78661 901.216867,190.014956 902.180723,189.291529 C903.096386,188.66456 903.915663,187.941133 904.783133,187.217707 C905.26506,186.831879 905.795181,186.397824 906.180723,185.867311 C907.771084,183.504118 909.506024,181.189153 910.662651,178.584818 C911.433735,176.800366 912.542169,175.257057 913.939759,173.906661 C914.662651,173.183234 915.385542,172.70095 916.493976,173.086778 C917.409639,173.376148 918.421687,173.376148 919.385542,173.569062 C919.819277,173.665519 920.204819,173.810204 920.590361,173.954889 C920.975904,174.099574 922.13253,174.196031 922.566265,174.147803 C922.710843,174.147803 922.855422,174.147803 923,174.147803 C922.951807,173.761976 922.903614,173.32792 922.855422,172.942092 C922.421687,172.797407 921.939759,172.652722 921.506024,172.556265 C920.590361,172.266894 919.578313,172.315123 918.614458,172.122209 C916.542169,171.736382 914.710843,170.820041 912.879518,169.759016 C911.433735,168.890904 909.891566,168.167478 908.301205,167.588737 C907.674699,167.347595 907.192771,167.009996 906.759036,166.57594 C905.313253,165.273772 903.915663,163.923376 902.518072,162.524752 C901.939759,161.946011 901.409639,161.319041 901.072289,160.595615 C900.493976,159.341676 899.771084,158.232422 898.903614,157.171396 C898.421687,156.544427 898.036145,155.821 897.60241,155.145802 C896.686747,153.650721 895.722892,152.107412 894.807229,150.564102 C894.518072,150.033589 894.277108,149.503076 893.987952,148.972564 C893.506024,148.007995 893.024096,146.995198 892.493976,146.03063 C892.012048,145.11429 891.096386,144.632005 890.325301,144.005036 C889.506024,143.378066 888.686747,142.751097 887.771084,142.317041 C885.891566,141.400701 884.060241,140.387904 881.891566,140.098533 C880.542169,139.953848 879.192771,139.760934 878.13253,138.699909 C877.650602,138.217624 877.072289,138.265853 876.542169,139.037508 C877.168675,139.760934 877.891566,140.339675 878.662651,140.966645 C880.108434,142.124127 881.60241,143.329838 882.421687,145.066061 C882.518072,145.307203 882.662651,145.548345 882.855422,145.693031 C884.73494,147.718625 886.614458,149.69599 888.493976,151.673356 C889.024096,152.252097 889.506024,152.927295 889.987952,153.554264 C891.192771,155.194031 892.301205,156.978483 893.650602,158.425336 C894.614458,159.438133 895.674699,160.402701 896.927711,161.126127 C898.084337,161.801325 899,162.814122 900.108434,163.682234 C899,163.344635 897.891566,163.055265 896.783133,162.717666 C895.048193,162.187153 893.361446,161.608412 891.674699,161.126127 C890.759036,160.836757 889.795181,160.692072 888.831325,160.450929 C888.156627,160.258016 887.433735,160.11333 886.759036,159.872188 C884.975904,159.148762 883.192771,158.425336 881.457831,157.605452 C880.204819,157.026711 879,156.255056 877.746988,155.628087 C877.650602,155.579858 877.506024,155.53163 877.457831,155.435173 C876.638554,154.084777 875.048193,153.69895 874.036145,152.541467 C872.39759,150.660559 870.807229,148.731422 869.216867,146.754056 C868.927711,146.368229 868.783133,145.885944 868.493976,145.355432 C868.831325,145.11429 869.26506,144.776691 868.975904,144.197949 C867.53012,141.641843 868.060241,138.892822 868.39759,136.19203 C868.638554,134.262893 868.686747,132.381985 868.493976,130.452848 C868.301205,128.427254 867.963855,126.40166 867.674699,124.376066 C867.578313,123.797325 867.337349,123.266812 867.096386,122.688071 C866.855422,122.012873 866.614458,121.337675 866.277108,120.662477 C865.120482,118.492197 864.349398,116.080776 862.373494,114.44101 C861.554217,113.765812 860.831325,113.042385 859.963855,112.463644 C858.518072,111.499075 857.987952,110.100451 857.506024,108.557141 C857.409639,108.219542 857.457831,107.833715 857.361446,107.496116 C857.024096,106.483319 856.73494,105.470522 856.253012,104.554182 C855.433735,102.962644 854.46988,101.419334 853.554217,99.8760244 C853.409639,99.6831107 853.120482,99.5384254 852.927711,99.3937401 C852.783133,99.6348823 852.590361,99.827796 852.493976,100.068938 C852.253012,100.502994 852.060241,100.93705 851.86747,101.419334 C851.819277,101.564019 851.722892,101.756933 851.771084,101.901618 C852.301205,103.348471 851.626506,104.554182 851,105.759893 C850.13253,107.447888 850.180723,109.232339 850.46988,111.016791 C850.807229,112.945928 851.289157,114.826837 851.722892,116.755974 C851.771084,117.045345 851.771084,117.334715 851.819277,117.720543 C851.53012,117.575857 851.337349,117.4794 851.096386,117.334715 C850.855422,117.913456 851.048193,118.443969 851.289157,118.829796 C852.301205,120.517791 852.253012,122.3987 852.590361,124.23138 C852.975904,126.353431 853.168675,128.52371 854.46988,130.356391 C855.144578,131.320959 855.771084,132.333756 856.445783,133.298325 C856.975904,134.021751 857.554217,134.696949 858.084337,135.420376 C858.277108,135.661518 858.518072,135.854431 858.662651,136.095574 C859.771084,138.024711 861.650602,139.182193 863.192771,140.629046 C864.975904,142.220584 866.710843,143.812122 867.86747,145.982401 C868.73494,147.622168 869.698795,149.310163 871.096386,150.61233 C871.385542,150.901701 871.578313,151.2393 872.012048,151.818041 C871.53012,151.625127 871.289157,151.576899 871.096386,151.480442 C869.987952,150.61233 868.927711,149.744219 867.771084,148.924335 C866.855422,148.297366 865.891566,147.718625 864.975904,147.188112 C863.144578,146.127086 861.313253,145.066061 859.433735,144.005036 C859.240964,143.86035 859.048193,143.667437 858.903614,143.522751 C858.759036,143.378066 858.614458,143.136924 858.46988,143.088696 C856.349398,142.606411 854.518072,141.400701 852.542169,140.629046 C852.39759,140.580817 852.253012,140.48436 852.108434,140.339675 C851,139.085736 849.457831,138.36231 848.204819,137.301284 C847.096386,136.384944 846.036145,135.27569 845.361446,133.973523 C844.975904,133.250096 844.445783,132.574898 844.012048,131.851472 C842.518072,129.440051 841.891566,126.739259 841.457831,123.94201 C841.409639,123.700868 841.409639,123.411497 841.313253,123.170355 C840.686747,121.723502 840.445783,120.180192 840.060241,118.636883 C839.626506,117.141802 838.759036,115.694949 837.891566,114.392781 C837.216867,113.379984 836.831325,112.318959 836.445783,111.161476 C836.253012,110.534507 836.156627,109.811081 835.481928,109.377025 C834.903614,109.666395 834.759036,110.100451 834.951807,110.727421 C835.626506,112.753015 835.963855,114.923294 836.927711,116.900659 C837.554217,118.202827 837.795181,119.746137 838.228916,121.144761 C838.855422,123.073898 839.53012,124.954807 840.253012,126.835715 C840.73494,128.137883 841.361446,129.343594 842.084337,130.886903 C839.819277,129.343594 837.698795,127.993198 835.722892,126.498116 C834.036145,125.244177 832.542169,123.700868 830.855422,122.3987 C828.73494,120.758934 828.301205,118.347512 827.722892,116.032548 C827.289157,114.392781 827.144578,112.656558 827.048193,110.968563 C827,108.991197 826.277108,107.254974 825.361446,105.566979 C825.26506,105.374065 825.168675,105.181151 825.120482,104.988238 C824.493976,102.576816 823,100.792365 821.26506,99.152598 C821.072289,98.9596843 820.879518,98.7185422 820.686747,98.4774 C820.253012,97.8504305 819.86747,97.127004 819.337349,96.6447198 C817.506024,95.0049532 816.349398,92.9311308 815.481928,90.6643948 C814.759036,88.8317145 813.506024,87.2884048 812.156627,85.8897804 C810.710843,84.4429276 809.120482,83.1889885 807.433735,82.0315062 C807.048193,81.7421356 806.710843,81.3080798 806.46988,80.8740239 C805.506024,79.0895721 803.963855,77.7874046 802.566265,76.2923233 C801.746988,75.8582675 801.26506,75.8582675 800.783133,76.6299223 Z M840.060241,124.713665 C839,121.578817 837.939759,118.492197 836.831325,115.116208 C838.13253,116.804203 838.614458,117.816999 838.951807,119.215624 C839.192771,120.228421 839.578313,121.241218 839.86747,122.254015 C840.108434,123.073898 840.301205,123.845553 840.060241,124.713665 Z M853.168675,122.591614 C853.698795,123.073898 853.987952,123.363269 854.325301,123.652639 C854.855422,124.134924 855.337349,124.713665 855.915663,125.099492 C857.939759,126.498116 859.337349,128.379025 860.012048,130.742218 C860.445783,132.140842 860.783133,133.587695 861.120482,135.034548 C861.072289,135.034548 860.927711,134.98632 860.879518,134.938091 C859.481928,133.877066 858.13253,132.81604 856.783133,131.706787 C856.253012,131.272731 855.722892,130.790447 855.385542,130.211705 C854.325301,128.475482 853.939759,126.498116 853.361446,124.617208 C853.168675,124.086695 853.216867,123.459726 853.168675,122.591614 Z M853.939759,106.917375 C853.506024,106.049263 853.072289,105.181151 852.73494,104.264811 C852.542169,103.68607 852.590361,103.010872 853.168675,102.48036 C854.180723,103.878984 854.13253,105.374065 853.939759,106.917375 Z M853.891566,109.087654 C853.987952,109.280568 854.036145,109.52171 853.987952,109.714624 C853.795181,110.775649 853.506024,111.884903 853.26506,112.945928 C852.204819,111.35439 851.722892,109.52171 851.289157,107.737258 C851.048193,106.676233 851.722892,105.856349 852.108434,104.698867 C852.831325,106.338634 853.361446,107.737258 853.891566,109.087654 Z M854.518072,114.199867 C854.084337,113.042385 854.228916,111.884903 854.614458,110.823877 C855,109.714624 855.192771,108.653598 854.951807,107.447888 C854.855422,106.869146 854.855422,106.242177 855.240964,105.566979 C856.108434,107.110289 856.542169,108.60537 855.963855,110.245136 C855.53012,111.547304 855.048193,112.849471 854.518072,114.199867 Z M854.807229,119.93905 C855.144578,121.192989 855.915663,122.205786 856.783133,123.170355 C857.506024,123.94201 857.795181,124.906578 858.13253,125.919375 C856.542169,124.617208 855,123.266812 853.506024,121.868187 C852.927711,121.337675 852.783133,120.662477 852.783133,119.890822 C852.686747,117.913456 852.39759,115.984319 851.771084,114.103411 C851.433735,113.090614 851.337349,111.98136 851.481928,110.872106 C851.819277,111.547304 852.156627,112.174273 852.39759,112.8977 C853.26506,115.260893 854.180723,117.575857 854.807229,119.93905 Z M857.746988,114.923294 C857.457831,117.141802 857.024096,119.408538 857.26506,121.675274 C857.26506,121.819959 857.216867,121.964644 857.168675,122.205786 C855.337349,120.758934 855.53012,118.588654 854.951807,116.755974 C854.951807,116.707746 855,116.611289 855,116.514832 C855.240964,115.502035 855.385542,114.489238 855.674699,113.524669 C856.012048,112.463644 856.445783,111.450847 856.879518,110.293365 C857.939759,111.788446 857.939759,113.331756 857.746988,114.923294 Z M862.951807,117.913456 C863.192771,120.035507 862.951807,122.061101 862.518072,124.134924 C862.036145,126.40166 861.409639,128.668396 861.506024,131.079817 C861.506024,131.417416 861.409639,131.803243 861.409639,132.140842 C861.168675,131.755015 861.072289,131.417416 860.975904,131.031589 C860.445783,128.909538 859.819277,126.883944 858.855422,124.906578 C857.891566,122.929213 857.746988,120.807162 857.843373,118.73334 C857.939759,116.852431 858.325301,114.923294 858.614458,112.8977 C858.951807,113.090614 859.289157,113.283527 859.626506,113.524669 C860.108434,113.862268 860.542169,114.296324 861.024096,114.633923 C862.13253,115.502035 862.807229,116.514832 862.951807,117.913456 Z M866.277108,131.755015 C865.891566,133.105411 865.650602,134.504035 865.506024,135.90266 C865.361446,137.253056 865.457831,138.603452 865.409639,139.953848 C865.313253,139.953848 865.26506,139.953848 865.168675,139.953848 C864.879518,139.56802 864.590361,139.133964 864.204819,138.748137 C862.903614,137.494198 862.325301,135.854431 861.698795,134.214665 C861.650602,134.021751 861.60241,133.732381 861.698795,133.587695 C862.325301,132.81604 862.13253,131.851472 862.13253,131.031589 C862.084337,129.102452 862.46988,127.318 862.903614,125.485319 C863.337349,123.556182 863.819277,121.578817 863.674699,119.553223 C863.674699,119.263852 863.722892,118.974482 863.771084,118.588654 C863.963855,118.73334 864.060241,118.829796 864.108434,118.926253 C864.927711,120.710705 865.795181,122.446929 866.518072,124.279609 C866.759036,124.810121 866.662651,125.533548 866.662651,126.160517 C866.662651,126.69103 866.46988,127.221543 866.518072,127.752056 C866.662651,129.102452 866.662651,130.404619 866.277108,131.755015 Z M866.903614,141.690071 C866.228916,140.677274 866.036145,139.616249 866.13253,138.458767 C866.325301,136.626086 866.46988,134.745178 866.662651,132.864269 C866.759036,132.044386 866.855422,131.176274 867.385542,130.452848 C867.53012,131.369188 867.626506,132.285528 867.626506,133.201868 C867.626506,133.877066 867.53012,134.552264 867.433735,135.227462 C867.289157,136.577858 867.096386,137.928254 867,139.27865 C866.903614,140.098533 866.903614,140.870188 866.903614,141.690071 Z M867.144578,143.185152 C866.518072,142.751097 866.13253,142.461726 865.698795,142.124127 C865.361446,141.7383 865.024096,141.352472 864.638554,141.014873 C863.578313,140.050305 862.373494,139.182193 861.409639,138.169396 C860.060241,136.770772 858.903614,135.227462 857.650602,133.732381 C857.554217,133.635924 857.506024,133.44301 857.457831,133.298325 C858.710843,134.311122 860.253012,134.889863 861.120482,136.336716 C861.409639,136.819 861.843373,137.301284 862.228916,137.73534 C863.337349,138.941051 864.493976,140.146761 865.554217,141.400701 C865.698795,141.593614 865.650602,141.931213 865.698795,142.172355 C866.180723,142.317041 866.951807,142.172355 867.144578,143.185152 Z M890.807229,194.741342 C891.240964,192.522834 891.86747,190.352555 892.831325,188.326961 C893.939759,186.011996 895.86747,184.275773 897.939759,182.732463 C898.180723,182.587778 898.421687,182.443092 898.807229,182.20195 C898.518072,183.262976 898.228916,184.082859 897.987952,184.950971 C897.843373,185.385027 897.650602,185.819082 898.036145,186.20491 C897.506024,186.060225 897.457831,186.49428 897.313253,186.831879 C897.024096,187.699991 896.879518,188.568103 896.542169,189.387986 C896.204819,190.304326 895.86747,191.365352 895.192771,191.944093 C893.795181,193.149803 892.590361,194.451971 891.626506,196.043509 C891.289157,196.574022 890.807229,197.008078 890.180723,197.683276 C890.13253,197.200991 890.13253,197.056306 890.13253,196.911621 C890.421687,196.188194 890.662651,195.464768 890.807229,194.741342 Z M885.60241,199.226585 C887.096386,197.297448 888.493976,195.368311 889.120482,192.908661 C889.361446,191.847636 890.13253,191.124209 891.048193,190.49724 C890.903614,191.075981 890.759036,191.654722 890.614458,192.233463 C890.325301,193.583859 890.084337,194.886027 889.746988,196.236423 C889.554217,197.056306 889.313253,197.924418 888.493976,198.406702 C887.337349,199.0819 886.180723,199.70887 884.975904,200.384068 C885.072289,199.901783 885.313253,199.564184 885.60241,199.226585 Z M887.385542,190.111412 C887.481928,189.966727 887.722892,189.822042 887.915663,189.725585 C888.879518,189.339758 889.843373,189.002159 890.903614,188.616331 C890.855422,188.857473 890.855422,188.95393 890.855422,189.002159 C889.60241,190.207869 888.493976,191.510037 888.108434,193.294489 C887.963855,193.921458 887.626506,194.548428 887.289157,195.127169 C886.421687,196.670479 885.554217,198.213788 884.590361,199.70887 C884.060241,200.480524 883.53012,201.348636 882.373494,201.879149 C882.759036,200.91458 883.144578,200.287611 883.337349,199.612413 C883.819277,197.731504 884.349398,195.850595 885.024096,194.017915 C885.457831,192.522834 886.46988,191.41358 887.385542,190.111412 Z M894.036145,181.478524 C895.626506,181.189153 897.216867,181.044468 898.903614,180.851554 C897.698795,181.864351 896.493976,182.82892 895.337349,183.841717 C894.903614,184.227544 894.518072,184.6616 894.13253,185.095656 C893.554217,185.722626 893.072289,186.397824 892.445783,186.928336 C891.144578,188.085819 889.457831,188.375189 887.915663,189.098615 C887.86747,189.098615 887.771084,189.002159 887.626506,188.905702 C888.012048,187.12125 888.975904,185.57794 889.60241,183.889945 C889.60241,183.841717 889.650602,183.841717 889.698795,183.793488 C890.710843,182.298407 892.301205,181.767894 894.036145,181.478524 Z M900.542169,175.305285 C901.60241,175.546427 902.566265,176.028712 903.626506,176.414539 C903.337349,177.186194 902.710843,177.668478 902.036145,178.102534 C901.60241,178.391905 901.168675,178.633047 900.831325,178.970646 C900.301205,179.501158 899.722892,179.886986 899,180.031671 C896.686747,180.465727 894.373494,180.899783 892.060241,181.333839 C892.012048,181.237382 891.963855,181.140925 891.86747,181.044468 C892.686747,179.983443 893.216867,178.729504 894.325301,177.861392 C895.240964,177.186194 896.108434,176.414539 897.024096,175.739341 C898.084337,174.871229 899.337349,174.967686 900.542169,175.305285 Z M907.578313,172.315123 C906.566265,173.279691 905.698795,174.099574 904.831325,174.967686 C904.638554,175.112371 904.445783,175.401742 904.253012,175.401742 C903.385542,175.305285 902.46988,175.257057 901.650602,175.015915 C901.024096,174.871229 900.445783,174.485402 899.771084,174.196031 C902.13253,172.749179 904.783133,172.41158 907.578313,172.315123 Z M901.746988,187.844676 C901.409639,188.375189 900.73494,188.66456 900.156627,189.050387 C899.144578,189.725585 898.084337,190.352555 897.072289,190.979524 C896.975904,190.931296 896.879518,190.834839 896.783133,190.78661 C896.927711,190.304326 897.072289,189.773813 897.313253,189.291529 C897.795181,188.326961 898.084337,187.314164 898.084337,186.253138 C898.373494,185.481483 898.710843,184.758057 898.855422,183.986402 C899.096386,182.732463 899.722892,181.816123 900.590361,180.899783 C902.036145,179.404702 903.481928,177.90962 904.927711,176.414539 C905.072289,176.269854 905.409639,176.221625 905.650602,176.125168 C904.879518,179.018874 904.156627,181.864351 903.337349,184.613372 C903,185.770854 902.421687,186.831879 901.746988,187.844676 Z M913.072289,172.604493 C912.783133,172.942092 912.590361,173.231463 912.349398,173.424377 C911.240964,174.53363 910.421687,175.835798 909.843373,177.186194 C908.493976,180.272813 906.710843,183.11829 904.590361,185.722626 C904.39759,185.915539 904.156627,186.060225 903.915663,186.253138 C903.86747,186.20491 903.771084,186.156681 903.722892,186.108453 C904.012048,185.336798 904.349398,184.613372 904.542169,183.841717 C905.120482,181.671438 905.554217,179.45293 906.180723,177.282651 C906.518072,176.173397 907.048193,175.112371 907.53012,174.051346 C907.626506,173.810204 907.819277,173.61729 908.012048,173.472605 C909.506024,172.459808 911.144578,172.170437 913.072289,172.604493 Z M907.096386,168.071021 L910.373494,169.276732 C909.26506,169.132046 908.060241,169.276732 907.096386,168.071021 Z M890.566265,152.300325 C893.216867,154.422376 894.807229,157.412539 896.975904,159.920417 C894.180723,157.99128 892.204819,155.290488 890.566265,152.300325 Z M881.698795,141.593614 C883.771084,142.558183 885.313253,144.005036 886.421687,146.03063 C887.144578,147.332797 888.204819,148.490279 889.072289,149.69599 C889.361446,150.081818 889.60241,150.467645 889.554217,151.094615 C887.048193,149.40662 884.349398,146.078858 882.951807,144.005036 C882.421687,143.233381 881.891566,142.413498 881.26506,141.545386 C881.457831,141.545386 881.60241,141.545386 881.698795,141.593614 Z M900.927711,162.380067 C900.879518,162.380067 900.73494,162.428295 900.686747,162.380067 C899.819277,161.463726 898.951807,160.547386 898.084337,159.582818 C897.506024,158.90762 896.975904,158.184193 896.39759,157.508995 C895.915663,156.882026 895.385542,156.255056 894.903614,155.628087 C894.277108,154.856432 893.843373,153.891863 893.072289,153.361351 C892.253012,152.830838 891.771084,152.107412 891.240964,151.383985 C890.228916,149.985361 889.26506,148.586736 888.301205,147.139883 C887.819277,146.464685 887.481928,145.693031 886.951807,145.017833 C886.036145,143.86035 885.313253,142.413498 883.771084,141.882985 C883.626506,141.834756 883.53012,141.593614 883.240964,141.207787 C883.674699,141.352472 883.819277,141.400701 883.963855,141.497157 C885.60241,142.413498 887.240964,143.329838 888.879518,144.197949 C891,145.307203 892.301205,147.043427 893.072289,149.261934 C893.216867,149.647762 893.409639,150.033589 893.650602,150.419417 C894.710843,152.252097 895.771084,154.084777 896.831325,155.917457 C897.072289,156.303285 897.361446,156.689112 897.650602,157.07494 C898.373494,158.135965 899.144578,159.148762 899.819277,160.209787 C900.204819,160.884985 900.542169,161.65664 900.927711,162.380067 Z M898.46988,164.453889 C901.795181,164.936173 905.843373,166.86531 906.373494,168.119249 C903.674699,166.86531 901.072289,165.6596 898.46988,164.453889 Z M848.879518,166.720625 C850.325301,166.624168 851.915663,166.527711 853.843373,166.383026 C853.072289,167.347595 852.590361,168.167478 851.915663,168.697991 C850.277108,170.000158 848.975904,171.495239 847.674699,173.086778 C847.433735,173.376148 847.144578,173.665519 846.855422,173.954889 C846.759036,173.906661 846.662651,173.858432 846.614458,173.810204 C847.578313,171.591696 847.385542,169.03559 848.879518,166.720625 Z M843.433735,165.900742 C845.554217,165.273772 847.674699,164.791488 850.180723,165.129087 C847.819277,166.190112 845.60241,165.94897 843.433735,165.900742 Z M842.228916,170.916498 C842.421687,170.578899 842.710843,170.2413 843.048193,170.000158 C844.301205,169.132046 845.554217,168.312163 846.855422,167.444051 C847,167.347595 847.192771,167.299366 847.481928,167.154681 C847.192771,168.456848 846.951807,169.566102 846.710843,170.723585 C846.277108,172.893864 845.554217,174.919458 843.915663,176.510996 C842.421687,177.90962 840.783133,179.211788 839.240964,180.562184 C839.144578,180.513955 839.096386,180.417499 839,180.36927 C839,180.272813 838.951807,180.128128 839,180.031671 C839.578313,178.247219 840.253012,176.510996 840.686747,174.726544 C841.072289,173.376148 841.554217,172.122209 842.228916,170.916498 Z M834.518072,176.848595 C834.951807,175.835798 835.674699,174.823001 836.542169,174.099574 C837.939759,172.990321 839.578313,172.170437 841.168675,171.15764 C840.831325,172.459808 840.542169,173.569062 840.253012,174.726544 C840.108434,175.305285 840.108434,175.884026 839.915663,176.414539 C839.481928,177.572021 838.951807,178.681275 838.373494,179.742301 C837.987952,180.513955 837.650602,181.382067 837.024096,181.864351 C835.626506,182.973605 833.891566,183.407661 832.108434,184.034631 C832.39759,183.11829 832.638554,182.346636 832.879518,181.623209 C833.409639,180.031671 833.843373,178.391905 834.518072,176.848595 Z M829.216867,181.526752 C829.939759,180.899783 830.518072,180.128128 831.144578,179.404702 C831.86747,178.584818 832.590361,177.764935 833.313253,176.945052 C833.409639,176.99328 833.506024,177.041509 833.60241,177.089737 C833.361446,177.813163 833.024096,178.488361 832.831325,179.211788 C832.445783,180.417499 832.156627,181.671438 831.674699,182.82892 C831.433735,183.455889 831,184.131087 830.421687,184.516915 C829.120482,185.336798 827.722892,186.011996 826.277108,186.735423 C826.373494,186.397824 826.518072,186.156681 826.566265,185.867311 C827,184.179316 827.86747,182.732463 829.216867,181.526752 Z M819.771084,190.78661 C821.409639,188.375189 823.819277,186.831879 825.939759,184.6616 C825.506024,188.616331 822.662651,189.725585 819.771084,190.78661 Z M821.457831,185.433255 C822.036145,184.324001 822.855422,183.455889 824.108434,183.021834 C825.120482,182.684235 826.13253,182.153722 827.096386,181.719666 C827.192771,181.864351 827.240964,181.960808 827.337349,182.105493 C824.879518,184.420458 822.373494,186.687194 819.915663,189.002159 C820.349398,187.699991 820.879518,186.590737 821.457831,185.433255 Z M829.457831,175.401742 C830.421687,175.498199 831.289157,175.257057 832.204819,174.967686 C832.831325,174.774772 833.457831,174.581859 834.228916,174.726544 C833.60241,175.401742 833.024096,175.932255 832.542169,176.462767 C831.337349,177.813163 830.277108,179.211788 828.590361,180.176356 C826.855422,181.140925 825.024096,181.719666 823.192771,182.925377 C823.385542,181.574981 823.86747,180.610412 824.445783,179.742301 C825.409639,178.247219 826.710843,177.089737 827.963855,175.932255 C828.301205,175.594656 828.975904,175.401742 829.457831,175.401742 Z M838.46988,168.649762 C839.048193,168.649762 839.578313,169.03559 840.156627,169.180275 C840.73494,169.276732 841.361446,169.276732 842.228916,169.32496 C838.180723,172.170437 834.325301,174.678316 829.120482,174.774772 C830.710843,172.893864 832.060241,171.205869 834.084337,170.2413 C834.759036,169.95193 835.433735,169.662559 836.012048,169.228503 C836.783133,168.649762 837.650602,168.601534 838.46988,168.649762 Z M845.554217,166.768854 C844.73494,167.733422 843.722892,168.505077 842.46988,168.456848 C841.409639,168.40862 840.204819,168.697991 839.048193,167.636965 C841.361446,167.347595 843.433735,167.058224 845.554217,166.768854 Z M836.638554,164.598574 C837.024096,164.309204 837.168675,164.164518 837.361446,164.11629 C838.46988,163.971605 839.337349,163.055265 840.542169,163.007036 C840.73494,163.007036 840.975904,162.862351 841.120482,162.717666 C841.650602,162.235381 842.277108,162.28361 842.903614,162.187153 C843.240964,162.138924 843.578313,162.235381 843.915663,162.187153 C844.975904,161.994239 845.891566,162.428295 847,163.007036 C845.698795,163.537549 844.686747,164.019833 843.626506,164.453889 C843.048193,164.695031 842.421687,164.984402 841.795181,164.984402 C840.108434,164.984402 838.518072,164.74326 836.638554,164.598574 Z M830.46988,163.778691 C830.662651,163.634006 830.903614,163.48932 831.096386,163.392864 C832.156627,163.007036 833.072289,162.042468 834.373494,162.476523 C834.518072,162.524752 834.807229,162.380067 834.951807,162.235381 C836.686747,160.981442 838.421687,161.801325 840.156627,162.28361 C839.963855,162.476523 839.722892,162.524752 839.53012,162.57298 C839.192771,162.669437 838.855422,162.669437 838.566265,162.814122 C837.698795,163.19995 836.831325,163.682234 835.963855,164.068062 C835.578313,164.212747 835.144578,164.309204 834.710843,164.309204 C833.313253,164.212747 831.915663,164.068062 830.518072,163.923376 C830.518072,163.875148 830.46988,163.826919 830.46988,163.778691 Z M821.843373,164.791488 C822.46988,164.309204 822.903614,163.971605 823.337349,163.634006 C824.253012,162.862351 825.168675,162.042468 826.13253,161.270813 C826.228916,161.222584 826.373494,161.222584 826.518072,161.174356 C829.120482,160.884985 831.771084,160.884985 834.710843,160.933214 C833.939759,161.36727 833.457831,161.704869 832.927711,161.946011 C832.108434,162.331838 831.240964,162.717666 830.373494,163.055265 C829.650602,163.344635 828.927711,163.634006 828.204819,163.778691 C826.518072,164.11629 824.783133,164.357432 823.048193,164.646803 C822.614458,164.791488 822.325301,164.791488 821.843373,164.791488 Z M815.915663,163.778691 C816.108434,163.634006 816.204819,163.48932 816.301205,163.48932 C817.216867,163.537549 817.939759,163.19995 818.662651,162.621209 C818.807229,162.524752 818.951807,162.428295 819.096386,162.380067 C820.879518,162.042468 822.662651,161.753097 824.686747,161.36727 C823.53012,163.151721 821.843373,163.971605 820.301205,164.646803 C818.855422,165.322001 817.313253,164.598574 815.915663,163.778691 Z M812.831325,162.524752 C814.325301,162.524752 815.481928,162.524752 816.686747,162.524752 C816.686747,162.621209 816.686747,162.717666 816.686747,162.862351 C815.481928,162.862351 814.228916,163.778691 812.831325,162.524752 Z M817.746988,160.450929 C818.325301,160.692072 818.903614,160.884985 819.578313,161.126127 C816.686747,161.994239 813.746988,161.415498 810.855422,161.415498 C811.433735,161.029671 812.060241,160.788528 812.638554,160.450929 C814.325301,159.486361 816.012048,159.727503 817.746988,160.450929 Z M822.084337,156.689112 C824.108434,157.412539 826.036145,158.28065 827.915663,159.679275 C827.578313,159.775732 827.337349,159.872188 827.096386,159.920417 C825.891566,160.161559 824.686747,160.354473 823.481928,160.547386 C822.228916,160.7403 820.975904,160.836757 819.722892,160.402701 C818.710843,160.016874 817.650602,159.727503 816.638554,159.389904 C816.638554,159.245219 816.590361,159.148762 816.590361,159.004077 C818.13253,158.232422 819.674699,157.460767 821.26506,156.737341 C821.457831,156.640884 821.795181,156.592655 822.084337,156.689112 Z M834.180723,157.36431 C835.481928,158.377107 836.638554,159.582818 838.084337,160.450929 C838.13253,160.450929 838.084337,160.595615 838.13253,160.692072 C837.746988,160.643843 837.361446,160.547386 836.975904,160.499158 C835.481928,160.258016 833.987952,159.775732 832.445783,159.872188 C830.855422,159.968645 829.409639,159.775732 827.963855,158.90762 C826.421687,157.943051 824.686747,157.219625 822.759036,156.255056 C824.879518,155.242259 826.903614,154.663518 829.024096,154.518833 C829.313253,154.518833 829.650602,154.567061 829.891566,154.711747 C831.337349,155.53163 832.879518,156.351513 834.180723,157.36431 Z M841.313253,157.508995 C841.554217,158.039508 842.180723,158.425336 842.566265,158.90762 C843.144578,159.679275 844.060241,160.161559 844.39759,161.222584 C844.156627,161.319041 843.915663,161.463726 843.771084,161.415498 C842.710843,161.029671 841.60241,161.222584 840.493976,161.174356 C840.204819,161.174356 839.819277,161.126127 839.674699,160.933214 C838.807229,159.872188 837.554217,159.245219 836.542169,158.377107 C835.385542,157.460767 834.180723,156.592655 833.024096,155.724544 C832.301205,155.194031 831.626506,154.663518 830.759036,154.036549 C833.120482,153.69895 835.289157,153.891863 837.409639,154.374148 C839.192771,154.808203 840.493976,155.821 841.313253,157.508995 Z M847.626506,158.955848 C848.39759,159.968645 849.024096,161.077899 849.746988,162.187153 C848.927711,162.042468 848.204819,161.849554 847.53012,161.849554 C846.566265,161.897782 845.795181,161.511955 845.26506,160.884985 C843.915663,159.341676 842.421687,157.943051 841.457831,156.110371 C841.361446,155.917457 841.313253,155.676315 841.168675,155.338716 C842.855422,156.158599 844.39759,156.833797 845.891566,157.605452 C846.518072,157.943051 847.192771,158.377107 847.626506,158.955848 Z M855,162.57298 C852.204819,163.392864 850.13253,161.801325 849.168675,159.727503 C849.843373,160.11333 850.373494,160.306244 850.759036,160.643843 C851.771084,161.608412 852.975904,161.946011 854.277108,162.28361 C854.518072,162.331838 854.662651,162.428295 855,162.57298 Z M858.710843,163.682234 C858.373494,164.164518 857.987952,164.550346 857.60241,164.598574 C856.831325,164.695031 856.012048,164.646803 855.192771,164.598574 C853.457831,164.453889 851.722892,164.309204 849.987952,164.11629 C849.506024,164.068062 849.024096,163.971605 848.204819,163.826919 C849.554217,163.103493 849.506024,163.248178 850.566265,163.392864 C851.963855,163.585777 853.361446,163.585777 854.759036,163.634006 C855.337349,163.055265 856.012048,163.441092 856.686747,163.48932 C857.361446,163.537549 858.036145,163.634006 858.710843,163.682234 Z M874.807229,166.624168 C874.228916,167.202909 873.939759,167.829879 873.891566,168.649762 C873.795181,170.144843 873.313253,171.591696 872.39759,172.749179 C871.86747,173.424377 871.433735,174.099574 871.096386,174.919458 C870.710843,175.884026 870.228916,176.800366 869.843373,177.764935 C869.168675,179.597615 868.73494,181.430295 868.349398,183.262976 C868.204819,183.938174 868.204819,184.613372 867.915663,185.240341 C867.240964,186.880108 867.192771,188.519874 867.481928,190.256098 C867.771084,191.992321 868.253012,193.728545 867.337349,195.561225 C867.240964,195.271854 867.048193,195.030712 867.096386,194.78957 C867.240964,193.535631 866.903614,192.32992 866.614458,191.124209 C866.13253,189.098615 865.843373,187.024793 866.228916,184.950971 C866.614458,182.732463 867.096386,180.513955 867.53012,178.295448 C867.674699,177.572021 867.915663,176.800366 868.204819,176.125168 C869.168675,173.810204 870.46988,171.639925 871.86747,169.566102 C872.927711,167.974564 874.036145,166.431255 875.192771,164.887945 C875.481928,164.453889 875.963855,164.164518 876.349398,163.778691 C876.156627,164.936173 875.578313,165.852513 874.807229,166.624168 Z M876.783133,165.514914 C876.831325,165.756057 876.783133,165.94897 876.73494,166.093656 C876.156627,167.49228 875.674699,168.939133 875.53012,170.482442 C875.385542,171.977524 875.048193,173.520833 874.759036,175.015915 C874.566265,176.028712 874.277108,177.089737 874.036145,178.102534 C873.987952,178.295448 873.939759,178.53659 873.843373,178.729504 C873.024096,180.99624 872.204819,183.311204 871.337349,185.57794 C871.289157,185.770854 871.144578,185.963768 871.048193,186.156681 C870.228916,187.555306 869.409639,189.002159 868.638554,190.400783 C868.542169,190.400783 868.445783,190.400783 868.349398,190.400783 C868.349398,189.532671 868.156627,188.616331 868.301205,187.74822 C868.590361,185.915539 868.927711,184.034631 869.506024,182.298407 C870.036145,180.755098 870.036145,179.163559 870.710843,177.668478 C871.337349,176.318082 871.963855,174.967686 872.783133,173.761976 C873.554217,172.604493 874.421687,171.350554 874.421687,169.95193 C874.421687,167.926336 875.674699,166.768854 876.783133,165.514914 Z M879.626506,160.692072 C876.590361,161.126127 873.554217,161.511955 870.518072,161.946011 L870.421687,161.608412 C871.289157,161.415498 872.156627,161.222584 873.024096,161.077899 C874.13253,160.884985 875.289157,160.836757 876.39759,160.547386 C877.506024,160.258016 878.566265,160.402701 879.626506,160.692072 Z M882.855422,159.293447 C883.481928,159.486361 883.963855,159.582818 884.39759,159.727503 C883.433735,160.016874 883.433735,160.016874 882.855422,159.293447 Z M811.289157,147.766853 C812.156627,145.837716 812.975904,144.005036 813.795181,142.124127 C814.180723,141.256015 814.614458,140.339675 815.096386,139.471563 C815.722892,138.410538 816.493976,137.542426 817.795181,137.349513 C819.096386,137.204827 820.39759,137.060142 821.698795,137.011914 C821.987952,137.011914 822.277108,137.204827 822.662651,137.349513 C822.180723,138.072939 821.746988,138.555223 821.457831,139.085736 C820.39759,140.966645 819.481928,142.94401 818.373494,144.776691 C817.650602,146.03063 816.638554,146.898741 815,146.898741 C814.228916,146.898741 813.506024,147.188112 812.73494,147.332797 C812.253012,147.525711 811.771084,147.670396 811.289157,147.766853 Z M804.156627,149.503076 C804.590361,147.284569 805.746988,145.40366 807,143.619208 C807.337349,143.185152 807.722892,142.847553 808.204819,142.558183 C809.024096,142.075899 809.891566,141.641843 810.46988,140.918416 C811.626506,139.56802 813.26506,139.085736 814.903614,138.265853 C814.325301,139.423335 813.843373,140.339675 813.409639,141.304244 C812.493976,143.329838 811.819277,145.500117 810.46988,147.381026 C810.13253,147.86331 809.795181,148.200909 809.313253,148.490279 C808.686747,148.827878 808.108434,149.261934 807.578313,149.69599 C806.228916,150.708787 804.879518,151.673356 803.048193,152.396782 C803.240964,151.818041 803.385542,151.480442 803.53012,151.142843 C803.722892,150.61233 804.012048,150.081818 804.156627,149.503076 Z M794.903614,154.229462 C795.674699,152.927295 796.301205,151.818041 796.927711,150.708787 C797.313253,149.985361 797.795181,149.213706 798.036145,148.442051 C798.325301,147.332797 799,146.705828 799.963855,146.223543 C800.783133,145.837716 801.554217,145.40366 802.373494,145.066061 C803.481928,144.583777 804.638554,144.149721 805.746988,143.715665 C805.795181,143.763894 805.843373,143.86035 805.891566,143.908579 C805.746988,144.149721 805.554217,144.390863 805.457831,144.632005 C804.831325,145.837716 804.204819,147.043427 803.674699,148.297366 C803.192771,149.40662 802.855422,150.564102 802.518072,151.721584 C802.036145,153.216665 800.879518,153.98832 799.385542,154.133005 C797.987952,154.277691 796.590361,154.229462 794.903614,154.229462 Z M789.698795,154.036549 C792.156627,151.721584 794.325301,149.165477 797.409639,147.815081 C797.457831,147.86331 797.554217,147.959767 797.60241,148.007995 C797.072289,149.261934 796.542169,150.515873 795.963855,151.721584 C795.86747,151.914498 795.722892,152.059183 795.578313,152.203868 C795.096386,152.734381 794.662651,153.264894 793.987952,153.98832 C792.783133,153.98832 791.240964,153.98832 789.698795,154.036549 Z M793.409639,146.416457 C794.46988,146.561142 795.578313,146.705828 796.879518,146.898741 C796.445783,147.188112 796.108434,147.429254 795.771084,147.525711 C794.710843,147.911538 793.843373,148.586736 793.024096,149.310163 C791.915663,150.274731 791,151.480442 789.60241,152.107412 C789.409639,152.203868 789.313253,152.396782 789.120482,152.541467 C788.686747,152.975523 788.204819,153.409579 787.771084,153.843635 C787.674699,153.554264 787.674699,153.409579 787.771084,153.264894 C788.783133,151.818041 789.891566,150.419417 790.180723,148.586736 C790.228916,148.393823 790.373494,148.200909 790.421687,148.007995 C791.048193,146.802284 792.060241,146.271772 793.409639,146.416457 Z M801.168675,141.690071 C801.987952,141.834756 802.807229,141.931213 803.674699,142.075899 C804.301205,142.172355 804.927711,142.268812 805.60241,142.413498 C805.60241,142.509954 805.60241,142.558183 805.60241,142.65464 C803.86747,143.329838 802.180723,144.053264 800.39759,144.776691 C800.39759,144.728462 800.253012,144.583777 800.108434,144.390863 C799.86747,144.583777 799.578313,144.728462 799.481928,144.969604 C799.096386,145.693031 798.421687,145.789487 797.698795,145.934173 C795.963855,146.223543 794.277108,145.885944 792.39759,145.548345 C793.746988,144.053264 795.385542,143.281609 796.927711,142.461726 C798.228916,141.641843 799.674699,141.497157 801.168675,141.690071 Z M808.39759,137.397741 C809.939759,137.494198 811.433735,137.494198 812.831325,138.121168 C811.674699,138.989279 810.421687,139.712706 809.409639,140.629046 C808.060241,141.834756 806.46988,141.641843 804.975904,141.497157 C803.86747,141.400701 802.807229,140.870188 801.650602,141.063102 C801.26506,141.11133 800.831325,140.918416 800.445783,140.870188 C800.445783,140.773731 800.39759,140.725503 800.39759,140.629046 C800.879518,140.387904 801.361446,140.146761 801.843373,139.905619 C802.759036,139.423335 803.722892,139.085736 804.542169,138.506995 C805.698795,137.783569 806.903614,137.301284 808.39759,137.397741 Z M822.13253,135.806203 C822.277108,135.90266 822.421687,136.095574 822.710843,136.481401 C819.819277,136.047345 817.26506,136.481401 814.710843,137.060142 C813.795181,137.253056 812.879518,137.204827 811.963855,137.011914 C811.096386,136.819 810.180723,136.433173 809.216867,136.722543 C809.024096,136.770772 808.783133,136.674315 808.590361,136.674315 C809.120482,136.240259 809.650602,135.999117 810.228916,135.854431 C812.012048,135.372147 813.795181,134.98632 815.53012,134.504035 C817.987952,133.732381 820.108434,134.455807 822.13253,135.806203 Z M828.39759,136.529629 C826.903614,136.626086 825.60241,136.577858 824.301205,136.095574 C823.096386,135.613289 822.036145,134.841634 820.879518,133.973523 C823.096386,133.635924 824.975904,134.06998 826.903614,134.552264 C827.86747,134.793406 828.301205,135.372147 828.39759,136.529629 Z M826.325301,141.256015 C825.024096,142.413498 823.819277,143.667437 822.566265,144.824919 C821.409639,145.885944 820.060241,146.561142 818.325301,146.416457 C818.759036,145.693031 819.144578,145.017833 819.53012,144.390863 C820.445783,142.702868 821.409639,140.966645 822.325301,139.230421 C822.855422,138.217624 823.53012,137.397741 824.783133,137.349513 C825.746988,137.301284 826.662651,137.397741 827.53012,137.590655 C827.481928,138.169396 827.578313,138.699909 827.385542,139.133964 C827.096386,139.857391 827.048193,140.629046 826.325301,141.256015 Z M828.73494,137.494198 C829.26506,137.590655 829.698795,137.687112 830.325301,137.783569 C829.554217,138.410538 829.024096,138.796365 828.493976,139.230421 L828.301205,139.133964 C828.39759,138.603452 828.590361,138.072939 828.73494,137.494198 Z M832.638554,135.854431 C831,137.108371 830.325301,136.963685 829.168675,135.082777 C830.325301,135.372147 831.385542,135.613289 832.638554,135.854431 Z M836.542169,129.729421 C836.493976,129.825878 836.493976,129.922335 836.445783,130.018792 C835.385542,130.115249 834.325301,130.211705 833.26506,130.259934 C831.722892,130.356391 830.228916,130.404619 828.686747,130.452848 C828.012048,130.452848 827.337349,130.356391 826.662651,130.356391 C822.759036,130.404619 818.855422,130.211705 814.951807,129.77765 C812.493976,129.488279 810.084337,128.861309 807.86747,127.800284 C805.746988,126.787487 803.674699,126.305203 801.361446,126.498116 C800.39759,126.594573 799.337349,126.594573 798.277108,126.256974 C798.759036,126.015832 799.240964,125.822918 799.578313,125.581776 C802.373494,123.652639 805.361446,122.446929 808.831325,122.784528 C809.168675,122.832756 809.506024,122.688071 809.843373,122.688071 C810.084337,122.688071 810.373494,122.591614 810.566265,122.688071 C811.433735,122.977441 812.301205,123.31504 813.168675,123.604411 C814.277108,123.990238 815.433735,124.376066 816.542169,124.665436 C818.855422,125.340634 821.361446,125.099492 823.674699,125.967604 C823.771084,126.015832 823.86747,126.015832 823.915663,125.967604 C825.313253,125.630005 826.614458,126.208746 827.86747,126.642802 C829.698795,127.269771 831.53012,127.993198 833.361446,128.668396 C834.518072,128.957766 835.53012,129.343594 836.542169,129.729421 Z M811.626506,92.5935319 C811.674699,92.7382171 811.626506,92.9311308 811.626506,93.0758161 C811.337349,94.6191258 811.385542,96.1142071 811.86747,97.6092883 C812.156627,98.4774 812.445783,99.2972833 812.73494,100.165395 C812.493976,100.165395 812.349398,100.068938 812.253012,99.9242529 C809.554217,93.4616436 806.903614,87.0472627 804.204819,80.5846534 C804.301205,80.536425 804.445783,80.4881965 804.542169,80.4399681 C805.168675,81.5492219 805.891566,82.6102473 807,83.2854453 C807.722892,83.7195012 808.445783,84.2500139 809.024096,84.828755 C809.698795,85.5521814 810.325301,86.3238363 810.710843,87.191948 C811.481928,88.8317145 811.289157,90.7608516 811.626506,92.5935319 Z M819.722892,103.830755 C819.674699,105.422294 819.771084,107.013832 819.819277,108.653598 C819.819277,108.846512 819.771084,109.039426 819.771084,109.425253 C819.433735,109.184111 819.240964,109.087654 819.096386,108.89474 C818.421687,108.123086 817.746988,107.351431 817.072289,106.579776 C816.204819,105.566979 815.289157,104.60241 814.566265,103.541385 C814.036145,102.76973 813.313253,101.949847 813.506024,100.888821 C813.650602,100.068938 813.361446,99.4419686 813.024096,98.7185422 C812.590361,97.7539736 812.060241,96.6929482 812.156627,95.7283796 C812.301205,93.6545573 812.156627,91.5807349 812.012048,89.5551409 C812.012048,89.3622272 811.915663,89.1210851 811.86747,88.9281714 C811.722892,88.3976587 811.626506,87.8189175 811.53012,87.2401764 C811.771084,87.2884048 811.86747,87.2884048 811.915663,87.2884048 C812.73494,88.5905724 813.650602,89.8445115 814.325301,91.1949075 C815.337349,93.2687298 816.253012,95.3425522 817.987952,96.9823188 C818.903614,97.8504305 819.481928,98.9596843 819.674699,100.31008 C819.771084,101.515791 819.771084,102.673273 819.722892,103.830755 Z M824.686747,116.321918 C824.445783,116.129005 824.301205,115.984319 824.204819,115.839634 C823.433735,114.826837 822.710843,113.765812 821.939759,112.753015 C821.650602,112.318959 821.409639,111.884903 821.216867,111.450847 C820.39759,109.762852 820.638554,107.930172 820.493976,106.14572 C820.301205,104.023669 820.879518,101.901618 820.108434,99.5384254 C820.493976,99.8760244 820.686747,100.02071 820.831325,100.165395 C823,102.528588 824.204819,105.422294 825.26506,108.364228 C825.746988,109.666395 825.939759,111.113248 825.457831,112.463644 C825.120482,113.428213 824.831325,114.392781 824.927711,115.453807 C824.927711,115.694949 824.783133,115.936091 824.686747,116.321918 Z M825.891566,117.093573 C825.26506,116.321918 825.650602,115.164436 825.795181,113.910497 C826.277108,115.791406 826.662651,117.334715 827.048193,118.974482 C825.987952,118.781568 826.373494,117.672314 825.891566,117.093573 Z M822.228916,117.045345 C823.722892,116.56306 824.39759,117.045345 825.650602,119.312081 C824.39759,118.492197 823.385542,117.816999 822.228916,117.045345 Z M807.481928,101.129964 C807.915663,101.467563 808.204819,101.660476 808.39759,101.901618 C809.746988,103.493156 811.578313,104.505953 813.216867,105.663436 C815.096386,106.965603 817.072289,108.171314 818.373494,110.100451 C818.566265,110.389822 818.807229,110.630964 819.096386,110.823877 C820.783133,112.077817 821.361446,114.151639 822.807229,115.550263 C822.855422,115.598492 822.807229,115.694949 822.855422,115.984319 C821.939759,115.936091 821.120482,115.791406 820.349398,115.260893 C818.373494,114.006954 817.072289,112.077817 815.433735,110.486278 C813.120482,108.315999 811,105.904578 808.831325,103.589613 C808.156627,103.010872 807.578313,102.335674 807.481928,101.129964 Z M804.204819,89.0728566 C804.349398,89.0246282 804.493976,88.9763998 804.638554,88.9281714 C804.686747,89.2657704 804.686747,89.6033693 804.879518,89.8927399 C805.506024,91.0019937 806.036145,92.159476 806.807229,93.172273 C808.445783,95.2943238 810.518072,97.127004 811.289157,99.8760244 C811.385542,100.213623 811.626506,100.454766 811.819277,100.744136 C812.831325,102.383903 813.891566,104.023669 814.903614,105.663436 C813.746988,105.084695 812.73494,104.31304 811.626506,103.68607 C810.951807,103.300243 810.373494,102.866187 809.843373,102.335674 C809.072289,101.564019 808.253012,100.792365 807.53012,99.9724813 C807.048193,99.3937401 806.518072,98.7667706 806.277108,98.0915726 C805.168675,95.1978669 804.542169,92.159476 804.204819,89.0728566 Z M803.337349,80.9704808 L803.53012,80.9222524 L809.26506,94.7638111 C809.168675,94.8120395 809.072289,94.860268 808.975904,94.860268 C808.590361,94.3779837 808.253012,93.847471 807.86747,93.3651867 C806.518072,91.5807349 805.26506,89.7480546 804.686747,87.5777754 C804.590361,87.2401764 804.39759,86.9990343 804.253012,86.6614353 C803.963855,85.9862373 803.53012,85.3592677 803.433735,84.6840697 C803.289157,83.478359 803.337349,82.2244199 803.337349,80.9704808 Z" id="Shape" transform="translate(853.000000, 141.000000) scale(-1, 1) rotate(-14.000000) translate(-853.000000, -141.000000) "></path>
        </g>
    </g>
</svg>